<?xml version="1.0" standalone="no"?>
<!DOCTYPE svg PUBLIC "-//W3C//DTD SVG 20010904//EN"
 "http://www.w3.org/TR/2001/REC-SVG-20010904/DTD/svg10.dtd">
<svg version="1.0" xmlns="http://www.w3.org/2000/svg"
 width="643.000000pt" height="1200.000000pt" viewBox="0 0 643.000000 1200.000000"
 preserveAspectRatio="xMidYMid meet">

<g transform="translate(0.000000,1200.000000) scale(0.100000,-0.100000)"
fill="#000000" stroke="none">
<path d="M0 11186 c0 -642 3 -815 13 -819 9 -4 9 -6 0 -6 -10 -1 -13 -75 -13
-333 0 -219 4 -328 10 -318 5 8 10 31 10 51 0 30 3 35 21 35 12 -1 23 6 24 14
5 28 43 104 74 148 34 46 64 54 112 28 51 -26 78 -28 106 -6 14 11 41 20 60
20 30 0 34 -3 28 -20 -4 -13 2 -33 14 -54 12 -18 21 -41 21 -50 0 -9 4 -16 9
-16 5 0 13 -9 16 -21 6 -17 9 -18 22 -7 14 11 15 8 10 -27 -4 -22 -2 -89 3
-150 15 -161 12 -197 -15 -220 -7 -5 -16 -26 -19 -45 -13 -70 -77 -116 -172
-123 -58 -5 -124 -32 -124 -52 -1 -25 -20 23 -20 50 0 38 -36 73 -59 58 -12
-8 -15 -24 -13 -72 3 -36 -1 -67 -7 -75 -9 -10 -8 -15 4 -20 8 -3 15 -12 15
-21 0 -8 6 -15 13 -15 7 0 17 -8 24 -18 6 -10 78 -47 159 -81 82 -35 157 -72
166 -83 10 -11 23 -21 30 -22 7 -1 19 -5 26 -9 7 -5 21 -5 32 -2 14 4 20 2 20
-8 0 -10 8 -13 25 -9 14 2 25 8 25 12 0 5 16 14 35 20 19 6 35 15 35 19 0 14
54 -1 90 -25 55 -37 89 -65 149 -121 31 -29 59 -53 64 -53 16 0 48 -42 54 -70
3 -17 10 -30 15 -30 6 0 8 -13 6 -30 -3 -21 0 -30 10 -30 7 0 25 -9 38 -19 15
-11 33 -17 45 -14 14 4 25 0 31 -11 13 -22 28 -20 23 4 -3 16 2 20 21 20 21 0
24 4 19 20 -4 11 -2 20 4 20 6 0 11 -5 11 -11 0 -6 7 -9 15 -5 11 4 15 -1 15
-17 0 -21 1 -21 14 3 8 15 10 32 5 42 -7 14 6 28 26 28 2 0 15 -20 29 -44 31
-53 73 -85 82 -62 3 8 3 19 0 25 -3 5 2 7 13 4 13 -3 24 2 33 16 19 30 68 28
110 -6 18 -15 37 -33 41 -40 4 -7 21 -13 38 -13 27 0 29 2 24 28 -5 23 -4 24
4 6 5 -12 14 -25 20 -29 6 -3 11 -24 11 -46 0 -21 5 -39 11 -39 6 0 1 -13 -10
-29 -12 -16 -21 -35 -21 -43 0 -8 -8 -23 -18 -34 -10 -10 -19 -23 -20 -29 -1
-5 -10 -11 -22 -13 -17 -3 -20 -11 -20 -63 0 -33 4 -59 10 -59 20 0 9 -18 -14
-24 -14 -3 -27 -15 -31 -26 -7 -22 -65 -67 -65 -51 0 6 4 11 10 11 5 0 15 18
21 40 11 37 10 41 -12 59 -28 23 -134 67 -272 112 -69 23 -106 41 -125 61 -24
26 -137 108 -149 108 -2 0 -19 11 -37 25 -18 14 -40 25 -48 25 -8 0 -23 9 -33
20 -10 11 -37 22 -64 25 -25 4 -54 9 -65 12 -12 3 -16 1 -12 -6 4 -6 2 -11 -5
-11 -17 0 -79 40 -79 51 0 6 5 7 11 3 26 -16 -13 36 -43 58 -37 25 -64 47 -83
66 -8 6 -16 12 -19 12 -3 0 -26 16 -51 35 -67 50 -129 75 -191 75 -52 0 -53
-1 -43 -23 12 -27 84 -76 189 -129 67 -34 200 -147 200 -170 0 -11 -48 -10
-85 1 -17 5 -72 50 -124 99 -52 50 -111 99 -130 109 -20 10 -37 21 -39 26 -2
4 -12 7 -23 7 -10 0 -19 4 -19 8 0 5 -18 17 -40 27 -22 10 -40 21 -40 25 0 4
-25 15 -55 25 -44 15 -57 17 -67 7 -8 -8 -9 -15 -3 -20 6 -4 10 -11 10 -17 1
-5 8 -34 18 -64 9 -30 17 -61 17 -68 0 -20 -39 -16 -68 8 l-27 21 -3 -213 c-1
-116 -1 -214 2 -216 2 -2 26 -8 53 -13 26 -4 42 -8 36 -9 -7 0 -13 -5 -13 -11
0 -6 27 -10 61 -10 34 0 58 4 54 9 -3 5 -1 12 4 16 14 8 62 -5 55 -16 -3 -5 2
-9 10 -9 9 0 15 6 13 13 -1 8 14 12 53 12 47 0 55 -3 52 -17 -2 -15 2 -17 28
-12 24 5 30 3 30 -10 0 -10 -4 -14 -10 -11 -5 3 -7 0 -4 -8 5 -14 24 -23 64
-32 8 -2 16 -9 18 -14 2 -6 13 -11 24 -11 11 0 22 -8 25 -20 3 -10 15 -22 27
-26 69 -21 130 -65 139 -101 3 -10 6 -2 7 17 l3 35 7 -35 c5 -23 8 -27 9 -12
0 12 6 22 11 22 6 0 10 -10 10 -22 0 -25 5 -35 69 -138 39 -64 45 -69 57 -53
7 10 14 16 14 13 8 -36 7 -60 -2 -60 -6 0 5 -13 23 -30 31 -27 36 -28 56 -15
30 20 36 19 28 -5 -4 -13 -1 -22 9 -26 9 -3 26 -27 38 -52 13 -26 26 -49 29
-52 13 -10 27 -47 39 -100 7 -30 21 -68 30 -85 18 -29 28 -88 29 -172 1 -28 7
-48 21 -61 50 -46 57 -109 24 -210 -8 -23 -14 -54 -14 -67 0 -21 5 -25 30 -25
19 0 30 -5 30 -14 0 -7 8 -16 18 -20 14 -5 26 -11 62 -34 2 -2 -2 -7 -10 -13
-12 -7 -11 -10 8 -15 12 -4 22 -11 21 -18 -1 -6 -1 -20 0 -30 1 -18 4 -17 31
9 16 16 30 34 30 40 0 11 30 11 68 0 19 -7 22 -14 22 -64 0 -55 -21 -233 -40
-341 -5 -30 -12 -82 -15 -115 -3 -33 -10 -84 -15 -114 -12 -67 -12 -71 -1 -71
5 0 12 28 16 63 3 34 10 71 15 82 4 11 14 54 20 95 49 303 89 498 90 439 1
-10 4 -9 11 4 6 10 8 25 5 33 -3 8 1 17 9 21 10 3 13 12 10 24 -4 10 -3 24 2
31 4 7 8 15 8 18 1 3 9 22 18 44 9 21 17 44 17 50 0 7 6 32 14 57 8 24 17 56
20 70 3 14 28 55 54 90 55 72 59 83 77 224 11 85 26 161 50 262 3 12 15 32 27
43 20 18 24 19 44 5 42 -27 72 -64 89 -109 10 -25 21 -44 26 -43 5 1 17 -11
27 -28 27 -47 52 -67 68 -54 11 9 17 4 28 -22 8 -19 10 -35 5 -37 -5 -2 -9
-21 -9 -43 0 -32 -3 -39 -20 -39 -20 0 -20 0 0 -20 12 -12 20 -33 20 -52 0
-31 14 -87 31 -120 5 -10 9 -25 9 -33 0 -8 8 -15 19 -15 11 0 21 -9 24 -22 2
-13 8 -31 12 -41 6 -13 0 -20 -26 -32 -19 -8 -29 -14 -22 -15 7 0 24 5 38 12
20 9 28 9 38 -1 9 -10 8 -11 -8 -6 -15 5 -16 4 -6 -3 7 -5 21 -7 31 -5 10 3
21 0 25 -7 4 -7 -2 -14 -15 -17 -13 -3 -19 -11 -16 -19 3 -8 1 -14 -4 -14 -5
0 -10 10 -12 23 -4 26 -48 38 -48 13 0 -9 -5 -16 -11 -16 -6 0 -9 -10 -7 -22
4 -27 41 -36 65 -16 14 11 15 10 8 -11 -6 -20 -4 -22 14 -16 11 3 30 1 42 -5
13 -7 19 -8 15 -2 -3 6 -2 13 4 17 6 3 10 -4 10 -17 0 -19 2 -20 11 -8 8 12
12 12 16 2 4 -10 8 -10 19 -1 11 9 14 9 14 0 0 -8 12 -11 33 -9 19 2 31 8 30
16 -2 6 2 12 8 12 7 0 9 -10 5 -25 -4 -14 -4 -30 -2 -34 10 -15 57 1 65 22 l8
20 19 -20 c26 -27 76 -36 100 -18 23 17 38 19 29 4 -4 -5 -18 -14 -31 -19 -13
-5 -24 -14 -24 -20 0 -6 19 -1 43 11 l42 21 -25 -26 -25 -27 28 10 c24 9 26 9
16 -7 -8 -13 -8 -29 0 -60 12 -41 24 -52 36 -32 3 6 -1 10 -9 10 -9 0 -16 9
-16 20 0 15 7 20 28 20 28 0 52 -33 52 -74 0 -18 1 -18 19 -2 19 17 20 17 30
-3 18 -33 13 -41 -29 -41 -33 0 -40 -3 -40 -20 0 -13 -7 -20 -20 -20 -13 0
-20 -7 -20 -20 0 -18 7 -20 59 -20 52 0 59 -3 66 -22 6 -20 8 -20 12 -5 2 9 6
17 7 17 18 0 76 -29 96 -47 14 -13 34 -23 46 -23 17 0 25 -11 39 -55 15 -50
35 -81 35 -56 0 6 4 11 10 11 5 0 7 -7 3 -16 -5 -14 2 -16 51 -13 31 2 56 1
56 -3 0 -5 3 -7 8 -7 22 4 32 -3 32 -21 0 -12 7 -20 18 -20 14 0 15 2 2 10
-12 8 -10 10 10 8 19 -2 26 2 28 20 3 22 42 33 42 12 0 -5 9 -10 20 -10 26 0
26 -16 0 -23 -11 -3 -20 -11 -20 -19 0 -8 3 -9 8 -2 4 6 15 13 25 17 12 5 17
17 17 47 0 30 4 40 16 40 11 0 14 6 9 20 -5 16 -3 19 12 13 26 -10 33 -23 33
-70 0 -32 4 -43 15 -43 11 0 15 -12 16 -42 1 -41 1 -42 11 -15 5 15 14 27 19
27 12 0 11 -7 -1 -31 -12 -22 -4 -24 33 -10 24 10 25 9 20 -30 -4 -24 -1 -50
7 -65 12 -22 11 -26 -8 -40 -12 -8 -22 -25 -22 -38 0 -12 -4 -26 -8 -31 -5 -6
-14 -35 -21 -65 -7 -30 -22 -84 -32 -118 -10 -35 -17 -68 -14 -72 3 -4 -2 -11
-10 -14 -12 -4 -13 -10 -6 -25 6 -10 7 -21 3 -25 -3 -4 -1 -10 5 -14 7 -5 3
-13 -12 -24 -23 -17 -24 -17 -30 2 -3 10 -15 22 -25 25 -22 7 -30 44 -26 120
4 80 5 83 28 91 20 6 20 8 5 19 -18 13 -23 45 -7 45 6 0 6 9 0 25 -12 31 -5
86 12 96 10 7 8 9 -6 9 -11 0 -16 5 -13 14 8 20 -4 28 -21 13 -13 -10 -14 -9
-10 3 3 10 15 14 34 12 l28 -3 -25 20 c-13 11 -18 20 -11 21 14 0 17 56 2 65
-6 4 -7 -6 -3 -26 4 -23 3 -30 -5 -25 -7 4 -12 16 -12 26 0 20 -27 40 -54 40
-8 0 -28 -12 -45 -26 -17 -14 -29 -19 -26 -12 3 8 23 25 45 39 22 13 40 27 40
32 0 11 -10 8 -38 -11 -30 -21 -93 -23 -100 -4 -2 7 -8 12 -13 12 -6 0 -8 -4
-5 -9 4 -5 -4 -7 -16 -3 -21 5 -21 6 -3 12 17 6 16 7 -7 12 -30 6 -30 2 -4
-71 17 -45 14 -61 -10 -61 -17 0 -18 -12 -2 -28 9 -9 5 -9 -14 0 -23 11 -25
15 -14 28 8 8 17 25 20 36 7 23 -11 74 -26 74 -5 0 -7 4 -4 8 10 16 -64 -1
-80 -19 -37 -40 -6 -119 46 -119 52 0 69 -35 23 -46 -16 -4 -32 -13 -38 -20
-22 -29 -135 19 -135 56 0 13 29 32 39 26 16 -10 41 5 41 25 0 10 -4 19 -10
19 -5 0 -10 -4 -10 -10 0 -5 -14 -10 -31 -10 l-32 0 7 63 c4 34 12 66 17 72
16 17 10 35 -13 35 -24 0 -63 -20 -40 -20 7 0 12 -14 12 -36 0 -19 -4 -33 -9
-29 -6 3 -8 -9 -7 -27 2 -18 2 -25 -1 -16 -6 22 -33 46 -33 29 0 -7 4 -21 10
-31 8 -15 6 -18 -8 -16 -12 2 -17 13 -17 37 -1 33 -3 34 -42 37 -37 3 -41 1
-42 -20 0 -13 -1 -39 -1 -58 -1 -19 -6 -41 -13 -48 -6 -8 -14 -41 -17 -74 l-6
-60 37 6 c62 10 70 2 64 -61 -3 -35 -2 -52 5 -48 5 3 10 15 10 26 0 23 -3 24
67 -3 47 -17 64 -19 95 -11 29 8 38 7 42 -4 3 -8 10 -12 15 -8 6 3 7 13 4 23
-6 16 -6 16 11 -1 23 -23 56 -40 56 -29 0 4 7 17 15 28 14 18 14 17 5 -9 -19
-54 -6 -75 26 -42 13 12 17 12 35 -3 20 -17 19 -17 -11 -20 -37 -4 -39 -17 -2
-27 l27 -7 -29 -10 c-21 -8 -30 -7 -36 2 -10 16 -55 8 -55 -10 0 -8 -8 -15
-17 -14 -51 2 -57 5 -52 18 3 8 12 12 19 10 20 -8 28 14 12 30 -8 9 -24 12
-36 9 -12 -3 -21 -1 -21 6 0 6 -7 8 -17 4 -11 -4 -14 -3 -9 5 4 7 3 12 -3 12
-5 0 -12 -6 -14 -12 -4 -9 -6 -8 -6 3 -1 20 -98 46 -114 30 -8 -8 -7 -11 4
-12 34 -2 53 -9 61 -23 12 -21 28 -20 28 1 0 16 1 16 13 0 6 -10 26 -22 42
-27 30 -10 30 -10 -6 -6 -20 2 -42 -1 -48 -7 -8 -8 -11 -8 -11 1 0 17 -25 15
-41 -4 -12 -15 -15 -14 -30 5 -13 15 -20 18 -25 10 -5 -9 -10 -5 -15 9 -10 26
-44 29 -75 7 -12 -8 -24 -12 -26 -9 -3 2 -13 -8 -23 -23 -13 -19 -15 -28 -6
-31 9 -3 9 -7 0 -18 -7 -8 -10 -16 -8 -17 2 -2 17 -11 33 -21 36 -23 20 -36
-45 -36 -37 0 -50 -5 -65 -24 -10 -14 -29 -28 -43 -32 -24 -6 -24 -7 -6 -14
18 -6 17 -8 -10 -22 -17 -8 -28 -21 -26 -29 1 -8 3 -33 2 -56 0 -34 4 -43 20
-48 28 -9 59 -36 59 -52 0 -7 7 -10 17 -6 13 5 15 3 9 -12 -7 -18 -6 -18 13
-1 11 10 19 21 18 25 -1 3 3 6 8 6 6 0 8 -4 6 -10 -3 -5 -4 -29 -4 -51 0 -40
-1 -42 -31 -40 -24 1 -30 -3 -28 -16 2 -11 -3 -18 -12 -18 -9 0 -19 -12 -22
-26 -4 -17 -11 -23 -21 -20 -20 8 -50 -10 -58 -33 -8 -25 4 -51 21 -44 8 3 24
-1 37 -9 12 -8 37 -13 55 -11 26 3 34 0 41 -19 9 -21 10 -21 10 -3 1 11 12 33
25 49 19 24 22 38 18 75 -2 25 -8 50 -13 55 -12 14 -11 73 1 97 13 23 32 25
28 3 -2 -10 2 -19 8 -21 7 -2 11 4 10 14 0 10 5 18 13 18 8 0 16 6 18 13 3 7
-4 12 -15 12 -11 0 -25 7 -32 15 -7 8 -19 15 -27 15 -11 0 -13 7 -9 24 5 19 1
25 -16 30 -17 4 -20 8 -11 17 15 15 53 -5 53 -29 0 -10 3 -13 8 -6 4 5 16 10
27 11 11 0 27 3 36 7 10 4 25 -3 43 -19 15 -14 38 -25 51 -25 18 0 28 -9 41
-35 18 -38 39 -37 31 1 -2 13 -3 24 -2 24 13 0 92 -34 113 -48 33 -23 65 -35
57 -22 -8 14 12 12 60 -5 25 -9 41 -11 43 -4 5 13 32 -9 32 -26 0 -7 10 -15
23 -19 13 -4 18 -9 11 -13 -6 -5 -7 -18 -3 -33 4 -14 8 -20 9 -15 1 6 6 -1 10
-15 l8 -25 1 26 c1 14 -5 31 -11 38 -11 10 -10 11 5 6 9 -4 17 -13 17 -21 0
-8 6 -14 14 -14 22 0 6 -50 -19 -60 -33 -13 -43 -32 -12 -25 24 6 25 5 22 -45
-2 -29 -7 -56 -13 -62 -10 -10 -5 -75 7 -93 13 -18 13 -73 0 -81 -9 -5 -10 1
-6 24 5 24 3 32 -7 32 -17 0 -27 -25 -19 -47 5 -12 3 -14 -8 -8 -12 7 -12 6
-1 -7 10 -12 11 -31 6 -64 -5 -37 -9 -43 -16 -30 -8 13 -13 15 -24 5 -7 -6
-11 -16 -7 -22 10 -16 12 -57 3 -57 -4 0 -15 -17 -23 -38 -17 -42 -83 -122
-101 -122 -6 0 -4 5 4 10 8 5 10 10 3 10 -6 0 -9 9 -6 21 5 16 2 20 -8 17 -8
-3 -13 -11 -11 -18 1 -7 -2 -18 -8 -25 -8 -10 -8 -24 -1 -52 16 -57 13 -85
-14 -147 -25 -57 -25 -82 1 -72 7 3 16 1 19 -4 10 -16 19 -12 61 29 21 21 56
44 77 50 20 7 37 16 37 21 0 4 8 11 18 14 9 3 2 -7 -16 -24 -17 -16 -32 -34
-32 -38 0 -17 -150 -162 -167 -162 -6 0 -13 -8 -17 -17 -3 -10 -9 -23 -12 -30
-11 -23 63 -43 160 -43 109 0 133 -12 138 -67 2 -30 10 -42 37 -60 51 -35 94
-29 181 22 41 24 77 40 78 35 6 -16 30 -11 36 8 3 9 4 5 2 -10 -2 -15 0 -26 3
-23 4 2 13 0 21 -6 11 -6 8 -9 -13 -9 -16 0 -26 -4 -23 -9 3 -5 15 -7 26 -4
12 3 20 0 20 -7 0 -7 -7 -10 -15 -6 -8 3 -21 -2 -29 -10 -10 -10 -42 -16 -93
-19 -43 -3 -91 -6 -108 -8 -16 -2 -40 -4 -52 -5 -12 -1 -42 -18 -67 -37 -35
-26 -56 -35 -86 -35 -30 0 -48 -8 -76 -32 -31 -27 -42 -31 -84 -29 -26 1 -76
-3 -111 -10 -35 -6 -72 -11 -83 -11 -10 1 -43 -12 -74 -29 -30 -16 -63 -29
-73 -29 -11 0 -19 -7 -19 -15 0 -8 -16 -19 -40 -25 -22 -6 -44 -19 -50 -30
-15 -28 -12 -67 5 -74 8 -3 15 -11 15 -17 0 -7 12 -27 26 -46 16 -21 24 -43
22 -61 -3 -26 -5 -27 -83 -35 -88 -8 -87 -8 -200 59 -109 64 -206 108 -240
108 -33 0 -84 -31 -85 -51 0 -18 -50 -73 -66 -73 -8 0 -14 -7 -14 -15 0 -8 -4
-15 -10 -15 -16 0 -12 18 8 32 21 15 34 55 21 64 -13 8 -11 41 2 50 8 5 10 -1
7 -20 -3 -16 -1 -26 7 -26 18 0 6 51 -16 73 -18 17 -20 17 -26 1 -4 -10 -7
-33 -7 -51 -1 -19 -6 -33 -13 -33 -17 0 -53 36 -53 53 1 6 9 2 20 -11 21 -26
36 -13 20 18 -6 11 -8 31 -5 43 5 17 4 19 -4 7 -10 -15 -12 -13 -15 13 0 6
-12 13 -26 15 -14 2 -32 6 -40 9 -8 4 -26 8 -40 8 -14 1 -32 4 -40 6 -10 3
-16 -5 -18 -23 -2 -17 2 -28 8 -28 7 0 10 7 6 15 -3 8 -1 15 4 15 6 0 10 -7
10 -15 0 -8 10 -17 23 -20 23 -6 44 -42 53 -89 3 -20 1 -24 -11 -20 -11 5 -15
-1 -15 -24 0 -20 6 -33 17 -37 17 -5 43 -51 58 -103 6 -21 5 -23 -13 -13 -26
14 -32 14 -32 1 0 -5 7 -10 15 -10 9 0 15 -6 13 -13 -4 -19 9 -21 43 -7 25 11
32 10 47 -3 9 -8 26 -17 37 -19 11 -2 24 -13 30 -26 11 -25 33 -29 41 -7 4 8
11 15 16 15 6 0 6 -6 -1 -14 -17 -20 29 -28 96 -18 42 7 51 6 43 -4 -8 -9 -3
-14 20 -19 27 -6 31 -10 26 -30 -3 -13 -2 -27 4 -30 6 -3 6 -13 1 -23 -5 -9
-15 -29 -22 -45 -7 -16 -23 -30 -38 -33 -50 -11 -82 -27 -100 -50 -11 -13 -24
-24 -30 -24 -6 0 -13 -11 -17 -25 -9 -36 -66 -82 -126 -100 -29 -9 -104 -19
-165 -22 -71 -4 -110 -9 -106 -16 8 -14 -77 -87 -109 -94 -15 -3 -25 -9 -22
-14 3 -5 -2 -12 -10 -15 -9 -3 -16 -15 -16 -25 0 -25 -17 -24 -25 1 -8 25 -25
26 -26 3 0 -15 -1 -16 -7 -2 -11 25 -46 65 -62 72 -9 3 -10 6 -2 6 6 1 12 5
12 10 0 15 -30 22 -49 11 -23 -12 -35 -2 -20 16 6 8 8 21 5 30 -6 16 -8 16
-25 0 -17 -15 -18 -14 -18 16 0 18 2 27 5 20 3 -10 7 -10 20 0 8 7 16 12 16
11 1 -1 11 0 24 3 29 8 29 40 0 55 -29 16 -89 21 -108 9 -19 -11 -8 -22 24
-24 30 -1 30 0 14 -43 -10 -28 -17 -33 -45 -33 -32 0 -33 1 -33 45 0 49 -3 51
-48 32 -42 -17 -112 -10 -112 12 0 9 -9 22 -20 29 -26 16 -26 32 0 32 30 0 24
13 -20 40 -22 14 -40 28 -40 32 0 5 -9 8 -20 8 -18 0 -20 7 -20 79 0 44 -4 81
-9 83 -5 1 -12 38 -16 81 l-7 77 30 0 c29 0 31 -3 35 -43 2 -23 4 -5 5 41 2
67 -1 82 -13 82 -11 0 -15 11 -15 40 0 29 -4 40 -15 40 -11 0 -15 -11 -15 -41
0 -37 -2 -40 -23 -35 -12 3 -17 3 -11 1 13 -7 6 -65 -8 -65 -5 0 -8 14 -6 32
2 18 -2 33 -9 35 -8 3 -13 -4 -13 -15 0 -11 -7 -33 -15 -48 l-15 -29 0 27 c0
15 4 30 10 33 5 3 10 21 10 39 0 18 3 35 6 39 4 3 8 24 9 46 2 22 7 50 11 63
7 21 9 18 21 -22 l13 -45 -6 40 c-3 22 -10 45 -15 51 -6 7 -5 22 2 40 6 16 12
47 14 69 2 22 11 72 20 110 8 39 22 104 30 145 42 224 55 290 64 340 6 30 13
66 17 80 5 20 4 23 -6 13 -7 -6 -23 -70 -36 -143 -13 -72 -28 -145 -33 -163
-6 -18 -20 -77 -32 -132 -11 -55 -25 -108 -30 -117 -5 -10 -9 -32 -9 -50 0
-39 -28 -124 -31 -93 -1 11 0 25 1 30 6 20 30 131 35 160 3 17 10 44 15 60 7
27 21 105 26 145 0 8 2 17 3 20 5 11 11 50 21 155 6 60 16 115 21 122 6 7 8
26 4 45 -6 27 -5 31 6 21 11 -9 14 -5 16 20 2 24 0 28 -8 17 -10 -15 -7 14 8
94 3 19 2 26 -6 22 -12 -8 -2 26 10 34 12 8 13 62 2 90 -6 14 -8 30 -6 37 2 6
-1 14 -6 18 -22 13 -10 34 25 45 19 7 38 18 41 26 3 8 9 12 13 9 11 -7 24 45
36 150 1 11 7 38 13 60 6 22 18 72 25 110 8 39 21 104 29 145 9 41 18 101 21
132 3 32 10 65 15 75 5 10 14 52 21 93 7 41 17 95 22 120 13 63 16 86 22 160
6 59 5 63 -7 37 -8 -16 -18 -28 -23 -28 -5 0 -9 -10 -8 -21 1 -12 -7 -31 -17
-42 -11 -11 -19 -26 -19 -33 0 -7 -4 -13 -10 -13 -5 0 -14 -19 -21 -42 -6 -24
-15 -51 -20 -60 -5 -10 -9 -27 -9 -38 0 -11 -4 -20 -10 -20 -5 0 -17 -16 -25
-36 -12 -29 -18 -34 -29 -25 -10 9 -15 8 -20 -4 -3 -9 0 -15 9 -15 18 0 18 -6
3 -142 -12 -105 -12 -107 -35 -102 -19 5 -22 3 -17 -10 5 -12 0 -19 -15 -23
-21 -5 -31 -43 -11 -43 6 0 10 -18 10 -40 0 -22 -4 -40 -10 -40 -5 0 -10 -5
-10 -11 0 -13 -58 -69 -71 -69 -5 0 -9 6 -9 13 -1 7 -6 5 -14 -5 -19 -26 -24
-23 -42 22 l-16 41 -15 -28 c-7 -15 -24 -36 -36 -47 l-22 -18 24 -19 c25 -21
12 -26 -21 -8 -16 8 -23 8 -30 -2 -7 -11 -11 -11 -15 -1 -6 14 -33 16 -33 2 0
-5 5 -10 10 -10 6 0 9 -32 9 -77 l-2 -78 -7 70 c-7 63 -12 75 -46 114 -22 24
-51 49 -66 57 -50 26 -180 12 -221 -24 -13 -12 -20 -13 -29 -4 -9 9 -7 12 7
12 19 1 55 22 55 32 0 2 -10 4 -22 4 -27 -1 -32 28 -5 30 12 1 13 1 2 -3 -16
-5 -21 -23 -6 -23 4 0 24 11 44 24 19 13 43 26 54 29 12 3 9 5 -9 6 -16 0 -28
6 -28 12 0 6 7 9 15 5 22 -8 18 3 -6 23 -12 10 -35 17 -50 16 -24 -1 -27 1
-18 17 12 22 34 24 25 2 -3 -8 -2 -13 3 -9 5 3 31 -6 58 -21 67 -36 154 -31
215 12 77 54 115 136 102 219 -8 53 -64 123 -121 150 -77 37 -208 11 -264 -52
-31 -36 -39 -54 -48 -122 -7 -46 -4 -61 16 -104 23 -47 23 -51 7 -66 -15 -15
-16 -15 -11 1 4 10 3 27 -1 37 -7 19 -10 21 -29 21 -5 0 -8 12 -8 28 -1 15 -4
50 -8 77 -3 28 -4 44 -1 37 8 -18 24 -4 18 16 -21 65 -26 71 -55 70 -34 -1
-51 -18 -19 -18 15 0 20 -5 17 -14 -3 -8 1 -13 10 -12 13 1 16 -14 18 -82 1
-48 -1 -78 -6 -70 -5 7 -9 23 -9 36 0 14 -6 22 -17 22 -15 0 -16 -2 -3 -10 11
-7 7 -9 -16 -7 -30 2 -32 4 -29 42 3 53 -3 65 -30 65 -12 0 -29 8 -36 17 -12
15 -12 16 6 9 11 -5 27 -9 35 -9 8 0 18 -5 22 -11 4 -6 10 -7 14 -3 11 11 -35
45 -54 40 -15 -4 -17 5 -14 81 3 69 7 86 20 89 9 3 -2 5 -25 6 l-43 1 0 -45
c0 -64 -16 -56 -23 11 -6 60 -20 86 -43 77 -8 -3 -14 1 -14 11 0 9 8 16 18 16
16 1 16 1 0 14 -10 7 -18 25 -18 40 0 20 -5 26 -23 26 -13 0 -29 6 -36 13 -11
10 -14 10 -18 0 -3 -7 -11 -13 -19 -13 -10 0 -14 12 -14 40 0 36 -2 40 -25 40
l-26 0 2 -222 c1 -123 3 -217 6 -210 3 6 9 12 15 12 6 0 4 -8 -5 -18 -16 -17
-17 -228 -17 -2830 l0 -2812 3215 0 3215 0 0 6000 0 6000 -3215 0 -3215 0 0
-814z m1900 -266 c0 -5 -4 -10 -10 -10 -5 0 -10 5 -10 10 0 6 5 10 10 10 6 0
10 -4 10 -10z m-1030 -136 c0 -9 -5 -14 -12 -12 -18 6 -21 28 -4 28 9 0 16 -7
16 -16z m-250 -355 c0 -5 -4 -9 -10 -9 -5 0 -10 7 -10 16 0 8 5 12 10 9 6 -3
10 -10 10 -16z m-435 -149 c3 -5 2 -10 -4 -10 -5 0 -13 5 -16 10 -3 6 -2 10 4
10 5 0 13 -4 16 -10z m295 -11 c0 -5 7 -9 15 -9 8 0 15 -7 15 -15 0 -18 31
-35 66 -35 22 0 25 -2 14 -15 -7 -8 -19 -15 -26 -15 -8 0 -14 -4 -14 -10 0 -5
5 -10 12 -10 6 0 9 -2 7 -5 -3 -2 -27 2 -54 9 -28 7 -55 11 -61 9 -16 -6 -29
98 -13 108 14 8 39 1 39 -12z m1031 -96 c13 -16 12 -17 -3 -4 -17 13 -22 21
-14 21 2 0 10 -8 17 -17z m-749 -86 c12 -19 9 -27 -12 -27 -10 0 -24 8 -29 18
-6 9 -11 13 -11 8 0 -5 -6 -3 -14 4 -8 6 -12 18 -10 25 4 9 -7 19 -31 29 -20
9 -34 20 -30 25 6 10 123 -60 137 -82z m-204 28 c6 -2 12 -14 12 -25 0 -18 -6
-20 -63 -20 -55 0 -67 -3 -87 -25 -24 -25 -90 -36 -90 -15 0 15 -43 35 -48 21
-2 -6 -9 -11 -15 -11 -8 0 -7 4 1 12 7 7 12 19 12 28 0 9 15 21 35 29 35 12
75 8 75 -9 0 -5 7 -7 15 -4 8 4 15 10 15 15 0 5 -7 9 -15 9 -8 0 -15 4 -15 8
0 8 141 -3 168 -13z m1102 21 c0 -2 -7 -6 -15 -10 -8 -3 -15 -1 -15 4 0 6 7
10 15 10 8 0 15 -2 15 -4z m-1346 -122 c5 -14 4 -15 -9 -4 -17 14 -19 20 -6
20 5 0 12 -7 15 -16z m1536 6 c0 -5 -7 -7 -15 -4 -8 4 -15 8 -15 10 0 2 7 4
15 4 8 0 15 -4 15 -10z m-1304 -65 c3 -14 10 -25 15 -25 5 0 9 -4 9 -10 0 -19
-28 2 -34 26 -4 15 -11 22 -18 18 -7 -4 -8 -3 -4 4 12 19 25 14 32 -13z m59
-85 c3 -5 2 -10 -4 -10 -5 0 -13 5 -16 10 -3 6 -2 10 4 10 5 0 13 -4 16 -10z
m65 -59 c0 -5 -9 -11 -20 -14 -22 -6 -28 8 -7 16 19 8 27 8 27 -2z m0 -31 c0
-5 -5 -10 -11 -10 -5 0 -7 5 -4 10 3 6 8 10 11 10 2 0 4 -4 4 -10z m17 -57
c-3 -10 -5 -2 -5 17 0 19 2 27 5 18 2 -10 2 -26 0 -35z m-20 15 c-3 -8 -6 -5
-6 6 -1 11 2 17 5 13 3 -3 4 -12 1 -19z m30 -80 c-3 -8 -6 -5 -6 6 -1 11 2 17
5 13 3 -3 4 -12 1 -19z m403 -157 c0 -6 -4 -13 -10 -16 -5 -3 -10 1 -10 9 0 9
5 16 10 16 6 0 10 -4 10 -9z m-43 -7 c-3 -3 -12 -4 -19 -1 -8 3 -5 6 6 6 11 1
17 -2 13 -5z m-237 -54 c0 -5 -9 -10 -20 -10 -11 0 -20 5 -20 10 0 6 9 10 20
10 11 0 20 -4 20 -10z m345 -190 c3 -5 1 -10 -4 -10 -6 0 -11 5 -11 10 0 6 2
10 4 10 3 0 8 -4 11 -10z m-300 -49 c-3 -6 -11 -11 -17 -11 -6 0 -6 6 2 15 14
17 26 13 15 -4z m-267 -520 c12 -11 22 -22 22 -25 0 -7 -32 5 -46 18 -6 6 -22
18 -34 26 -56 37 -63 49 -15 25 28 -14 60 -34 73 -44z m59 -47 c-3 -3 -12 -4
-19 -1 -8 3 -5 6 6 6 11 1 17 -2 13 -5z m1203 -93 c0 -6 -4 -12 -10 -16 -5 -3
-7 -11 -4 -18 2 -7 -2 -21 -10 -32 -10 -12 -15 -15 -16 -7 0 7 -4 11 -8 8 -4
-2 -6 11 -4 30 2 18 8 32 12 29 5 -3 11 -1 15 5 8 13 25 13 25 1z m-23 -193
c-3 -8 -6 -5 -6 6 -1 11 2 17 5 13 3 -3 4 -12 1 -19z m-24 -35 c-6 -41 -33
-82 -33 -51 0 9 4 19 9 22 4 3 11 19 14 36 9 43 17 37 10 -7z m1255 -183 c36
-20 188 -88 212 -95 53 -15 148 -76 189 -120 24 -26 45 -44 49 -41 3 3 16 -1
30 -10 13 -9 45 -18 70 -20 181 -16 277 -25 280 -28 2 -2 -12 -14 -30 -27 -18
-13 -34 -26 -36 -29 -1 -4 -15 -5 -31 -2 -42 6 -51 -35 -11 -51 8 -3 2 -5 -15
-4 -24 2 -31 -2 -33 -19 -2 -12 -12 -30 -23 -40 -10 -9 -19 -23 -19 -31 0 -7
-4 -13 -10 -13 -5 0 -7 7 -3 16 6 15 4 15 -19 0 -21 -14 -27 -14 -43 -2 -15
11 -17 17 -7 28 13 16 7 28 -14 28 -7 0 -10 -9 -8 -22 5 -23 4 -23 -6 0 -13
30 -45 26 -44 -5 0 -13 -4 -19 -10 -15 -27 16 -48 11 -63 -17 -16 -28 -18 -28
-53 -16 -19 7 -54 16 -78 20 -42 7 -52 17 -30 31 16 10 128 13 128 3 0 -5 7
-6 15 -3 11 5 12 10 2 25 -21 34 4 44 110 44 89 0 97 2 106 22 5 12 15 24 21
26 6 2 -2 2 -19 -1 -16 -2 -32 -9 -33 -14 -2 -5 -9 -5 -15 0 -7 4 -39 17 -72
28 -33 10 -64 25 -68 32 -5 7 -12 10 -17 7 -5 -3 -55 18 -110 46 -85 43 -105
50 -123 41 -12 -6 -67 -18 -122 -27 -55 -9 -108 -19 -117 -21 -33 -9 -18 12
27 40 42 27 62 55 31 43 -7 -3 -35 -8 -62 -12 -27 -4 -73 -15 -102 -26 -63
-23 -72 -24 -46 -4 19 14 19 14 -1 16 -16 1 -15 2 5 8 14 4 25 13 26 21 2 35
5 40 17 40 18 0 72 27 85 43 13 15 4 31 -20 40 -24 8 -23 27 0 27 11 0 24 11
30 25 12 27 47 33 80 15z m-1505 -35 c4 -8 3 -16 -1 -19 -4 -3 -9 4 -9 15 -2
23 3 25 10 4z m-547 -22 c12 -17 13 -17 19 0 7 16 27 25 23 10 -1 -5 2 -19 5
-33 4 -14 9 -60 10 -104 3 -60 7 -80 20 -88 9 -5 17 -20 17 -34 0 -32 47 -114
66 -114 8 0 13 -3 13 -7 -3 -21 2 -33 16 -33 8 0 15 -6 15 -13 0 -8 7 -29 16
-47 9 -18 19 -53 22 -79 4 -46 4 -46 -15 -26 -10 11 -41 63 -67 115 -27 52
-52 100 -56 105 -4 6 -13 32 -20 58 -7 27 -19 51 -27 54 -9 3 -13 23 -13 60 0
49 -18 92 -33 77 -2 -3 -7 2 -10 9 -4 11 0 13 14 10 13 -4 19 0 19 12 0 9 -6
15 -12 12 -7 -2 -18 3 -25 12 -8 11 -12 12 -13 4 0 -20 -20 -15 -21 5 0 13 -2
12 -9 -5 -6 -15 -15 -21 -25 -17 -21 8 -19 13 17 46 37 33 37 33 54 11z m614
-53 c0 -5 -5 -10 -11 -10 -5 0 -7 5 -4 10 3 6 8 10 11 10 2 0 4 -4 4 -10z
m125 0 c-27 -12 -43 -12 -25 0 8 5 22 9 30 9 10 0 8 -3 -5 -9z m2784 -69 c80
-34 97 -44 112 -73 8 -15 6 -17 -18 -14 -75 9 -170 43 -236 83 -87 54 16 56
142 4z m-3176 -99 c14 -25 15 -39 8 -65 l-10 -32 1 30 c1 17 -6 44 -15 62 -9
18 -17 42 -16 55 1 21 2 21 8 3 3 -11 14 -35 24 -53z m1457 24 c0 -11 -19 -15
-25 -6 -3 5 1 10 9 10 9 0 16 -2 16 -4z m397 -12 c-3 -3 -12 -4 -19 -1 -8 3
-5 6 6 6 11 1 17 -2 13 -5z m-1650 -61 c-3 -10 -5 -2 -5 17 0 19 2 27 5 18 2
-10 2 -26 0 -35z m3392 -56 c6 -8 8 -17 5 -20 -9 -8 -44 11 -44 23 0 15 26 12
39 -3z m-3547 -33 c10 -16 21 -35 24 -41 3 -7 11 -13 18 -13 6 0 28 -14 48
-30 l37 -31 5 23 c3 13 7 34 8 48 3 23 4 24 18 7 8 -10 20 -23 25 -30 6 -7 21
-29 33 -49 13 -20 43 -58 67 -84 25 -26 45 -50 45 -54 0 -13 -46 -28 -78 -25
l-33 3 5 -52 c3 -28 0 -80 -6 -116 -5 -36 -11 -76 -13 -90 -1 -14 -7 -41 -13
-60 -6 -19 -18 -69 -25 -110 -13 -72 -14 -74 -26 -46 -7 17 -12 81 -12 155 0
138 -11 201 -37 208 -9 2 -42 47 -72 100 -30 52 -69 111 -86 131 -31 37 -39
53 -54 105 -7 22 -5 32 11 48 l20 20 35 -20 c31 -19 34 -19 34 -3 0 10 -6 24
-12 31 -11 11 -10 13 2 9 8 -2 22 -18 32 -34z m1563 26 c3 -5 1 -10 -4 -10 -6
0 -11 5 -11 10 0 6 2 10 4 10 3 0 8 -4 11 -10z m-25 -65 c6 -8 9 -19 5 -25 -4
-6 1 -22 10 -36 19 -29 10 -48 -9 -21 -7 9 -21 17 -30 17 -13 0 -16 5 -11 20
5 14 2 18 -7 15 -8 -3 -25 -1 -39 4 -22 9 -23 10 -3 10 12 1 27 8 34 16 16 19
34 19 50 0z m60 -30 c11 -13 10 -14 -4 -9 -19 7 -21 -7 -4 -24 18 -18 -3 -14
-24 5 -22 20 -24 37 -3 29 8 -3 15 -1 15 4 0 14 6 12 20 -5z m2127 -7 c-3 -8
-6 -5 -6 6 -1 11 2 17 5 13 3 -3 4 -12 1 -19z m-227 -8 c0 -5 -2 -10 -4 -10
-3 0 -8 5 -11 10 -3 6 -1 10 4 10 6 0 11 -4 11 -10z m-1625 -39 c7 -12 -34 -6
-46 6 -7 7 -3 9 15 6 15 -3 28 -9 31 -12z m1668 -35 c-3 -5 -12 2 -19 15 -20
36 -16 48 5 19 11 -13 17 -29 14 -34z m-1779 -1 c3 -8 12 -15 20 -15 21 0 29
-17 10 -24 -8 -3 -12 -2 -9 4 3 6 -1 10 -10 10 -9 0 -14 -4 -10 -9 9 -16 -9
-20 -23 -5 -11 12 -10 14 5 14 13 0 14 3 5 12 -7 7 -12 16 -12 20 0 14 18 9
24 -7z m2202 -40 c13 -36 16 -62 10 -123 -6 -74 -12 -104 -69 -307 -14 -49
-28 -110 -32 -135 -4 -25 -18 -85 -31 -135 -13 -49 -24 -100 -24 -112 0 -13
-5 -23 -10 -23 -21 0 41 376 72 433 6 13 9 51 5 98 -3 43 0 95 6 116 5 21 11
74 11 119 1 76 13 114 36 114 5 0 16 -20 26 -45z m-1637 -10 c0 -5 -4 -3 -9 5
-5 8 -9 22 -9 30 0 16 17 -16 18 -35z m-619 5 c0 -5 -4 -10 -10 -10 -5 0 -10
5 -10 10 0 6 5 10 10 10 6 0 10 -4 10 -10z m-1400 -339 c0 -12 -20 -25 -27
-18 -7 7 6 27 18 27 5 0 9 -4 9 -9z m600 -41 c0 -5 -7 -10 -16 -10 -8 0 -12 5
-9 10 3 6 10 10 16 10 5 0 9 -4 9 -10z m-890 -60 c0 -5 -4 -10 -10 -10 -5 0
-10 5 -10 10 0 6 5 10 10 10 6 0 10 -4 10 -10z m1263 -27 c-7 -2 -19 -2 -25 0
-7 3 -2 5 12 5 14 0 19 -2 13 -5z m-8 -33 c3 -5 1 -10 -4 -10 -6 0 -11 5 -11
10 0 6 2 10 4 10 3 0 8 -4 11 -10z m-262 -34 c-4 -6 -6 -20 -4 -31 4 -27 -4
-17 -17 21 -9 29 -8 31 9 27 11 -3 16 -10 12 -17z m367 1 c8 -3 1 -4 -17 -4
-24 2 -29 5 -21 15 6 7 14 9 17 4 3 -5 13 -12 21 -15z m1097 -14 c-3 -10 -5
-4 -5 12 0 17 2 24 5 18 2 -7 2 -21 0 -30z m-1216 -6 c-10 -9 -11 -8 -5 6 3
10 9 15 12 12 3 -3 0 -11 -7 -18z m-381 -7 c0 -5 -5 -10 -11 -10 -5 0 -7 5 -4
10 3 6 8 10 11 10 2 0 4 -4 4 -10z m98 -2 c-6 -18 -28 -21 -28 -4 0 9 7 16 16
16 9 0 14 -5 12 -12z m186 1 c2 -2 -2 -10 -10 -17 -11 -10 -15 -8 -24 8 -9 17
-8 20 9 17 11 -2 22 -5 25 -8z m191 -20 c22 -42 15 -44 -12 -3 -12 19 -18 34
-13 34 5 0 17 -14 25 -31z m-70 1 l20 -9 -20 0 c-11 0 -27 4 -35 9 -13 9 -13
10 0 9 8 0 24 -4 35 -9z m-82 -20 c-13 -5 -23 -14 -23 -20 0 -5 -4 -10 -9 -10
-5 0 -7 9 -4 20 4 14 13 20 32 19 25 0 25 0 4 -9z m67 -6 c0 -2 -9 -4 -20 -4
-11 0 -20 4 -20 9 0 5 9 7 20 4 11 -3 20 -7 20 -9z m54 8 c3 -5 -1 -9 -9 -9
-8 0 -12 4 -9 9 3 4 7 8 9 8 2 0 6 -4 9 -8z m-24 -33 c0 -11 -21 -11 -39 0 -9
6 -5 9 13 9 14 0 26 -4 26 -9z m1565 -16 c19 -9 35 -20 35 -25 0 -4 7 -8 15
-8 8 0 15 -8 15 -18 0 -9 9 -23 20 -30 11 -7 20 -20 20 -30 -1 -16 -1 -16 -11
1 -5 9 -16 17 -23 17 -8 0 -17 7 -20 16 -4 9 -9 14 -12 11 -6 -6 -33 18 -68
61 -23 26 -18 27 29 5z m565 -103 c71 -36 98 -106 61 -157 -32 -44 -52 -120
-39 -149 6 -13 8 -27 5 -30 -9 -10 -35 14 -43 39 -4 12 -16 42 -27 67 -11 25
-19 49 -18 54 1 5 -3 13 -10 17 -20 12 -28 76 -18 151 5 35 32 37 89 8z
m-1849 -112 c-1 -5 -1 -26 -1 -48 0 -29 -4 -40 -15 -40 -11 0 -15 12 -15 51 0
40 3 50 16 47 8 -2 15 -6 15 -10z m56 -70 c-3 -7 -5 -2 -5 12 0 14 2 19 5 13
2 -7 2 -19 0 -25z m770 -50 c-3 -7 -5 -2 -5 12 0 14 2 19 5 13 2 -7 2 -19 0
-25z m-371 -89 c11 -18 -9 -28 -36 -17 -20 7 -22 11 -10 18 20 13 37 12 46 -1z
m224 -36 c-8 -3 -18 -11 -22 -17 -4 -6 -10 -7 -15 -3 -9 10 16 27 37 26 13 -1
13 -1 0 -6z m44 1 c24 -9 19 -22 -8 -20 -14 0 -22 6 -19 14 6 14 6 14 27 6z
m-7 -40 c-3 -3 -12 -4 -19 -1 -8 3 -5 6 6 6 11 1 17 -2 13 -5z m-533 -80 c18
-7 22 -34 5 -34 -8 0 -7 -5 1 -16 11 -12 10 -18 -3 -31 -35 -36 -64 20 -35 67
7 11 14 20 15 20 1 0 8 -3 17 -6z m-298 -51 c-18 -33 -21 -17 -5 24 6 15 13
23 16 16 2 -6 -3 -24 -11 -40z m444 30 c0 -5 -5 -15 -10 -23 -9 -14 -12 -12
-9 6 0 4 -5 11 -13 15 -9 6 -7 9 10 9 12 0 22 -3 22 -7z m1907 -15 c11 -13 36
-54 57 -92 43 -79 80 -120 118 -129 33 -9 78 -52 84 -80 5 -27 10 -32 84 -75
81 -47 93 -66 61 -93 -32 -26 -108 -25 -166 2 -42 20 -205 178 -205 199 0 5
-15 31 -32 57 -30 44 -33 55 -36 141 -2 52 0 92 5 92 5 0 19 -10 30 -22z
m-1787 -10 c0 -4 -4 -8 -9 -8 -6 0 -12 4 -15 8 -3 5 1 9 9 9 8 0 15 -4 15 -9z
m1980 -108 c0 -5 -4 -10 -10 -10 -5 0 -10 5 -10 10 0 6 5 10 10 10 6 0 10 -4
10 -10z m-30 -70 c0 -5 -4 -10 -10 -10 -5 0 -10 5 -10 10 0 6 5 10 10 10 6 0
10 -4 10 -10z m-2028 -122 c19 -16 31 -48 18 -48 -6 0 -10 -7 -10 -16 0 -8 5
-12 11 -9 13 8 49 -23 49 -42 0 -8 5 -11 10 -8 6 3 10 1 10 -4 0 -14 -20 -14
-75 0 -41 10 -71 39 -41 39 8 0 16 -7 20 -15 3 -8 11 -15 18 -14 10 0 10 2 1
6 -7 2 -13 13 -13 24 0 11 -7 19 -17 20 -14 0 -13 2 5 9 27 12 29 40 2 47 -11
3 -20 9 -20 14 0 13 14 11 32 -3z m378 -68 c0 -5 -2 -10 -4 -10 -3 0 -8 5 -11
10 -3 6 -1 10 4 10 6 0 11 -4 11 -10z m-660 -30 c-20 -13 -33 -13 -25 0 3 6
14 10 23 10 15 0 15 -2 2 -10z m216 -47 c-11 -11 -19 6 -11 24 8 17 8 17 12 0
3 -10 2 -21 -1 -24z m-336 -53 c0 -5 -2 -10 -4 -10 -3 0 -8 5 -11 10 -3 6 -1
10 4 10 6 0 11 -4 11 -10z m-2269 -19 c-7 -5 -10 -14 -7 -20 4 -6 1 -11 -6
-11 -8 0 -14 9 -14 20 0 14 7 20 21 20 15 0 17 -2 6 -9z m3446 -13 c-3 -8 -6
-5 -6 6 -1 11 2 17 5 13 3 -3 4 -12 1 -19z m-3527 -8 c0 -5 -5 -10 -11 -10 -5
0 -7 5 -4 10 3 6 8 10 11 10 2 0 4 -4 4 -10z m2430 0 c0 -5 -4 -10 -10 -10 -5
0 -10 5 -10 10 0 6 5 10 10 10 6 0 10 -4 10 -10z m-2215 -20 c3 -6 -1 -7 -9
-4 -18 7 -21 14 -7 14 6 0 13 -4 16 -10z m1895 0 c0 -5 -7 -7 -15 -4 -8 4 -15
8 -15 10 0 2 7 4 15 4 8 0 15 -4 15 -10z m970 -10 c0 -5 -2 -10 -4 -10 -3 0
-8 5 -11 10 -3 6 -1 10 4 10 6 0 11 -4 11 -10z m-624 -16 c22 -9 47 -24 56
-34 17 -18 16 -19 -21 -18 -30 0 -42 6 -52 24 -7 13 -16 24 -21 24 -4 0 -8 5
-8 10 0 13 1 13 46 -6z m1084 -17 c0 -5 -4 -5 -10 -2 -5 3 -10 14 -10 23 0 15
2 15 10 2 5 -8 10 -19 10 -23z m-4017 6 c-7 -2 -19 -2 -25 0 -7 3 -2 5 12 5
14 0 19 -2 13 -5z m144 -42 c1 -17 -3 -31 -9 -31 -5 0 -7 12 -3 30 6 26 4 30
-14 30 -12 0 -21 4 -21 10 0 6 9 6 23 1 16 -6 22 -17 24 -40z m2383 39 c0 -5
-5 -10 -11 -10 -5 0 -7 5 -4 10 3 6 8 10 11 10 2 0 4 -4 4 -10z m-2593 -22
c-3 -8 -6 -5 -6 6 -1 11 2 17 5 13 3 -3 4 -12 1 -19z m3217 6 c3 -8 2 -12 -4
-9 -6 3 -10 10 -10 16 0 14 7 11 14 -7z m61 6 c3 -6 -1 -7 -9 -4 -18 7 -21 14
-7 14 6 0 13 -4 16 -10z m-565 -9 c0 -9 -52 -22 -60 -15 -7 7 23 24 43 24 9 0
17 -4 17 -9z m476 -11 c0 -11 -4 -20 -8 -20 -4 0 -8 9 -8 20 0 11 4 20 8 20 4
0 8 -9 8 -20z m165 -2 c10 -13 18 -17 19 -10 0 6 5 12 12 12 6 0 8 -3 5 -7 -4
-3 -2 -12 4 -19 8 -10 5 -11 -13 -7 -42 9 -88 37 -75 45 19 12 27 10 48 -14z
m-2583 -13 c-3 -3 -9 2 -12 12 -6 14 -5 15 5 6 7 -7 10 -15 7 -18z m1818 -3
c-9 -2 -13 -8 -10 -14 4 -6 1 -8 -7 -6 -8 3 -13 11 -11 17 1 6 -2 11 -8 11 -5
0 -10 4 -10 9 0 5 14 4 31 -2 20 -8 25 -13 15 -15z m-2516 8 c0 -5 -7 -7 -15
-4 -17 7 -21 -11 -5 -19 6 -3 5 -4 -2 -3 -23 5 -22 36 1 36 12 0 21 -4 21 -10z
m47 -27 c-3 -10 -5 -4 -5 12 0 17 2 24 5 18 2 -7 2 -21 0 -30z m3163 16 c0 -5
-4 -9 -10 -9 -5 0 -10 6 -10 13 0 9 -3 8 -9 -2 -5 -8 -11 -9 -15 -3 -7 12 13
21 32 14 6 -2 12 -8 12 -13z m-2030 1 c0 -5 -2 -10 -4 -10 -3 0 -8 5 -11 10
-3 6 -1 10 4 10 6 0 11 -4 11 -10z m1613 3 c-7 -2 -19 -2 -25 0 -7 3 -2 5 12
5 14 0 19 -2 13 -5z m177 -35 c0 -4 7 -5 15 -2 14 6 33 -21 22 -32 -6 -6 -43
14 -69 39 -25 23 -23 27 7 14 14 -7 25 -15 25 -19z m-3030 15 c0 -5 -5 -15
-10 -23 -7 -12 -9 -10 -7 8 1 19 17 33 17 15z m2622 -15 c10 -15 12 -30 7 -43
l-9 -20 3 20 c2 11 -8 30 -21 43 -16 15 -18 22 -9 22 8 0 21 -10 29 -22z
m-2387 2 c3 -5 2 -10 -4 -10 -5 0 -13 5 -16 10 -3 6 -2 10 4 10 5 0 13 -4 16
-10z m3125 -12 c0 -5 -9 -4 -20 2 -11 6 -20 12 -20 14 0 2 9 2 20 -1 11 -3 20
-9 20 -15z m-3152 -21 c9 -2 1 -4 -20 -3 -33 1 -35 2 -20 17 13 12 18 13 20 3
2 -7 11 -15 20 -17z m215 13 c3 -11 1 -20 -4 -20 -5 0 -9 9 -9 20 0 11 2 20 4
20 2 0 6 -9 9 -20z m30 5 c-3 -9 -8 -14 -10 -11 -3 3 -2 9 2 15 9 16 15 13 8
-4z m-483 -5 c0 -5 -4 -10 -10 -10 -5 0 -10 5 -10 10 0 6 5 10 10 10 6 0 10
-4 10 -10z m50 0 c0 -5 -5 -10 -11 -10 -5 0 -7 5 -4 10 3 6 8 10 11 10 2 0 4
-4 4 -10z m90 -4 c0 -3 -4 -8 -10 -11 -5 -3 -10 -1 -10 4 0 6 5 11 10 11 6 0
10 -2 10 -4z m30 0 c0 -3 -4 -8 -10 -11 -5 -3 -10 -1 -10 4 0 6 5 11 10 11 6
0 10 -2 10 -4z m1087 -33 c-3 -10 -5 -4 -5 12 0 17 2 24 5 18 2 -7 2 -21 0
-30z m-977 23 c0 -3 -4 -8 -10 -11 -5 -3 -10 -1 -10 4 0 6 5 11 10 11 6 0 10
-2 10 -4z m502 -48 c-19 -44 -48 -76 -59 -65 -3 4 6 16 20 27 14 11 31 36 37
56 7 19 14 33 17 31 2 -3 -4 -25 -15 -49z m38 7 c-6 -15 -13 -26 -15 -23 -3 2
1 19 8 37 6 17 13 28 15 23 1 -5 -2 -22 -8 -37z m-287 -54 c9 -7 34 -19 54
-27 23 -8 30 -13 18 -14 -46 0 -125 76 -125 120 0 8 9 -3 19 -25 10 -22 25
-46 34 -54z m2900 69 c-3 -11 -9 -20 -14 -20 -11 0 -11 3 -3 24 9 23 23 20 17
-4z m-2894 -107 c37 -25 36 -30 -1 -12 -25 12 -64 57 -74 85 -4 11 4 3 17 -16
14 -19 40 -45 58 -57z m-187 67 c6 -18 -4 -100 -12 -100 -8 0 -18 82 -12 100
2 5 7 10 12 10 5 0 10 -5 12 -10z m3065 -17 c2 -6 -1 -14 -6 -18 -7 -3 -8 0
-5 10 5 11 2 14 -10 9 -9 -3 -16 -2 -16 4 0 13 33 8 37 -5z m-2638 -26 c-2 -1
-13 -9 -24 -17 -19 -14 -19 -14 -6 3 7 9 18 17 24 17 6 0 8 -1 6 -3z m-74 -16
c-16 -14 -63 -22 -70 -12 -3 5 9 12 27 14 18 2 37 5 43 5 6 1 6 -1 0 -7z m12
-25 c-24 -18 -90 -28 -119 -17 -18 7 -10 9 34 9 32 0 65 5 75 11 25 15 31 13
10 -3z m413 4 c0 -5 -7 -10 -15 -10 -8 0 -15 5 -15 10 0 6 7 10 15 10 8 0 15
-4 15 -10z m-700 -35 c0 -8 -4 -15 -9 -15 -5 0 -14 7 -21 15 -10 13 -9 15 9
15 12 0 21 -6 21 -15z m137 -131 c-3 -3 -12 -4 -19 -1 -8 3 -5 6 6 6 11 1 17
-2 13 -5z m73 -26 c0 -12 -3 -18 -7 -14 -11 10 -12 36 -2 36 5 0 9 -10 9 -22z
m-220 -9 c0 -14 -17 -10 -23 5 -4 10 -1 13 9 9 7 -3 14 -9 14 -14z m187 5 c-3
-3 -12 -4 -19 -1 -8 3 -5 6 6 6 11 1 17 -2 13 -5z m3328 -41 c-1 -10 -8 -17
-14 -15 -12 2 -15 -11 -4 -21 15 -16 11 -57 -6 -67 -10 -5 -21 -7 -24 -4 -3 3
-11 7 -19 8 -7 2 -26 8 -41 14 -24 10 -28 17 -25 44 3 32 5 33 68 44 36 7 66
12 67 13 1 1 0 -7 -2 -16z m-3085 -22 c0 -17 -18 -21 -24 -6 -3 9 0 15 9 15 8
0 15 -4 15 -9z m95 1 c-6 -4 -16 -18 -22 -32 l-12 -25 0 27 c-1 24 9 35 34 37
6 0 6 -2 0 -7z m-725 -24 c0 -6 -6 -5 -15 2 -8 7 -15 14 -15 16 0 2 7 1 15 -2
8 -4 15 -11 15 -16z m147 -20 c-3 -7 -5 -2 -5 12 0 14 2 19 5 13 2 -7 2 -19 0
-25z m60 -20 c-3 -8 -6 -5 -6 6 -1 11 2 17 5 13 3 -3 4 -12 1 -19z m740 0 c-3
-8 -6 -5 -6 6 -1 11 2 17 5 13 3 -3 4 -12 1 -19z m-350 -20 c-3 -8 -6 -5 -6 6
-1 11 2 17 5 13 3 -3 4 -12 1 -19z m93 12 c0 -5 -5 -10 -11 -10 -5 0 -7 5 -4
10 3 6 8 10 11 10 2 0 4 -4 4 -10z m-553 -22 c-3 -8 -6 -5 -6 6 -1 11 2 17 5
13 3 -3 4 -12 1 -19z m3405 5 c23 -20 23 -33 1 -33 -22 -1 -69 -48 -117 -119
-20 -29 -36 -50 -36 -47 0 15 64 118 76 123 8 3 11 9 8 15 -5 8 35 78 45 78 3
0 13 -7 23 -17z m-2615 -25 c-3 -8 -6 -5 -6 6 -1 11 2 17 5 13 3 -3 4 -12 1
-19z m-896 -5 c13 -17 13 -17 -6 -3 -11 8 -22 16 -24 17 -2 2 0 3 6 3 6 0 17
-8 24 -17z m435 -73 c-14 -17 -26 -29 -26 -25 0 10 44 63 49 59 2 -2 -8 -17
-23 -34z m91 18 c-3 -8 -6 -5 -6 6 -1 11 2 17 5 13 3 -3 4 -12 1 -19z m-23
-40 c-10 -13 -32 -36 -47 -51 -15 -15 -25 -32 -22 -37 4 -6 2 -10 -3 -10 -21
0 -19 28 1 39 12 7 33 28 47 46 14 19 29 35 34 35 5 0 1 -10 -10 -22z m-269 2
c3 -5 1 -10 -4 -10 -6 0 -11 5 -11 10 0 6 2 10 4 10 3 0 8 -4 11 -10z m93 -37
c-10 -2 -26 -2 -35 0 -10 3 -2 5 17 5 19 0 27 -2 18 -5z m-5 -30 c-7 -2 -21
-2 -30 0 -10 3 -4 5 12 5 17 0 24 -2 18 -5z m157 -8 c-7 -9 -15 -13 -19 -10
-3 3 1 10 9 15 21 14 24 12 10 -5z m4120 -14 c-6 -12 -20 -21 -33 -20 -15 0
-17 2 -7 6 8 4 21 15 29 25 17 25 26 16 11 -11z m-4390 15 c0 -2 -7 -7 -16
-10 -8 -3 -12 -2 -9 4 6 10 25 14 25 6z m160 -26 c0 -5 -8 -10 -17 -10 -15 0
-16 2 -3 10 19 12 20 12 20 0z m-52 -7 c-10 -2 -28 -2 -40 0 -13 2 -5 4 17 4
22 1 32 -1 23 -4z m2758 -45 c-18 -26 -22 -17 -5 14 6 11 13 17 16 15 3 -3 -2
-16 -11 -29z m-30 -15 c-8 -16 -23 -36 -32 -44 -16 -12 -17 -12 -11 4 4 10 7
23 7 28 0 12 40 52 47 46 2 -3 -2 -18 -11 -34z m415 14 c-10 -9 -11 -8 -5 6 3
10 9 15 12 12 3 -3 0 -11 -7 -18z m-174 -25 c-10 -10 -17 -23 -17 -28 0 -5
-25 -36 -56 -69 -55 -60 -55 -60 -23 -12 18 26 36 47 40 47 4 0 10 8 13 18 7
20 43 62 53 62 3 0 -1 -8 -10 -18z m-309 -104 c-4 -29 -25 -35 -22 -6 3 29 2
28 15 28 6 0 9 -10 7 -22z m1199 -75 c-2 -16 -4 -5 -4 22 0 28 2 40 4 28 2
-13 2 -35 0 -50z m-253 -45 c-9 -54 -55 -190 -81 -243 -63 -123 -129 -182
-215 -189 -24 -2 -33 -1 -20 1 16 3 21 9 18 21 -4 12 4 22 27 32 30 14 30 15
9 18 -20 3 -23 8 -17 30 4 15 7 27 8 27 30 6 57 34 67 69 6 22 20 55 31 72 10
17 19 37 19 43 0 7 5 17 10 24 6 7 26 34 46 60 53 71 107 90 98 35z m128 -80
c-7 -7 -12 -8 -12 -2 0 6 3 14 7 17 3 4 9 5 12 2 2 -3 -1 -11 -7 -17z m-31
-71 c-10 -9 -11 -8 -5 6 3 10 9 15 12 12 3 -3 0 -11 -7 -18z m-496 -307 c-3
-5 -11 -10 -16 -10 -6 0 -7 5 -4 10 3 6 11 10 16 10 6 0 7 -4 4 -10z m-615
-250 c0 -5 -5 -10 -11 -10 -5 0 -7 5 -4 10 3 6 8 10 11 10 2 0 4 -4 4 -10z
m-2225 -67 c-10 -67 -24 -88 -18 -27 5 57 10 74 19 74 3 0 3 -21 -1 -47z m-35
-140 c-11 -17 -11 -17 -6 0 3 10 7 26 7 35 1 15 2 15 6 0 2 -10 -1 -25 -7 -35z
m1418 -30 c-12 -11 -13 -25 -7 -60 10 -52 6 -62 -16 -43 -29 24 -37 48 -24 73
18 33 53 68 58 56 2 -6 -3 -18 -11 -26z m-1433 -43 c-9 -41 -17 -33 -9 9 4 17
9 30 11 27 3 -2 2 -19 -2 -36z m1185 36 c0 -3 -4 -8 -10 -11 -5 -3 -10 -1 -10
4 0 6 5 11 10 11 6 0 10 -2 10 -4z m-39 -109 c-10 -9 -11 -8 -5 6 3 10 9 15
12 12 3 -3 0 -11 -7 -18z m-1154 -169 c-3 -8 -6 -5 -6 6 -1 11 2 17 5 13 3 -3
4 -12 1 -19z m3100 -50 c-3 -8 -6 -5 -6 6 -1 11 2 17 5 13 3 -3 4 -12 1 -19z
m-3170 -200 c-3 -8 -6 -5 -6 6 -1 11 2 17 5 13 3 -3 4 -12 1 -19z m-72 -243
c-10 -28 -14 -33 -15 -17 0 20 20 65 27 59 1 -2 -4 -21 -12 -42z m563 28 c2
-8 -5 -13 -17 -13 -12 0 -21 6 -21 16 0 18 31 15 38 -3z m42 -28 c-7 -8 -16
-15 -21 -15 -5 0 -9 7 -9 15 0 9 9 15 21 15 18 0 19 -2 9 -15z m1183 -57 c26
-23 47 -46 47 -50 0 -5 9 -28 20 -50 11 -23 20 -47 20 -54 0 -6 7 -15 16 -18
13 -5 14 -9 4 -21 -14 -16 -4 -39 13 -28 20 12 -35 -58 -56 -72 -49 -31 -171
-56 -287 -59 -104 -2 -284 8 -217 12 18 1 27 8 27 19 0 15 2 14 14 -3 14 -19
15 -19 22 1 4 11 16 28 28 37 18 15 19 19 6 28 -13 9 -13 10 0 10 8 0 23 20
33 45 11 25 23 45 28 45 5 0 9 4 9 10 0 5 14 30 32 55 21 30 39 45 53 45 12 0
30 10 41 21 10 12 34 28 52 36 17 7 32 18 32 23 0 19 17 10 63 -32z m1046 14
c18 -34 -10 -95 -87 -191 -24 -29 -54 -71 -68 -92 -13 -22 -54 -68 -90 -104
-36 -35 -63 -69 -59 -75 4 -6 2 -16 -3 -23 -15 -19 -20 -66 -8 -70 6 -3 -2 -8
-18 -12 -26 -7 -28 -10 -22 -45 3 -21 9 -45 12 -54 5 -13 -1 -16 -30 -16 -42
0 -66 11 -183 83 -114 68 -110 97 20 138 37 11 67 25 67 30 0 5 6 9 13 9 8 0
12 20 12 64 1 69 -2 65 77 127 18 15 58 47 88 71 30 24 75 58 100 76 25 18 67
48 94 67 55 40 71 43 85 17z m-2065 -118 c3 -8 2 -12 -4 -9 -6 3 -10 10 -10
16 0 14 7 11 14 -7z m28 -19 c-2 -19 -6 -35 -8 -35 -2 0 -4 16 -4 35 0 19 4
35 8 35 4 0 6 -16 4 -35z m-55 -17 c-3 -8 -6 -5 -6 6 -1 11 2 17 5 13 3 -3 4
-12 1 -19z m-417 -108 c12 -7 8 -10 -15 -10 -16 0 -37 5 -45 10 -12 7 -8 10
15 10 17 0 37 -5 45 -10z m50 -10 c0 -5 -2 -10 -4 -10 -3 0 -8 5 -11 10 -3 6
-1 10 4 10 6 0 11 -4 11 -10z m188 -27 c-10 -2 -26 -2 -35 0 -10 3 -2 5 17 5
19 0 27 -2 18 -5z m59 1 c-3 -3 -12 -4 -19 -1 -8 3 -5 6 6 6 11 1 17 -2 13 -5z"/>
<path d="M470 10196 c0 -2 7 -7 16 -10 8 -3 12 -2 9 4 -6 10 -25 14 -25 6z"/>
<path d="M468 10113 c7 -3 16 -2 19 1 4 3 -2 6 -13 5 -11 0 -14 -3 -6 -6z"/>
<path d="M538 10103 c7 -3 16 -2 19 1 4 3 -2 6 -13 5 -11 0 -14 -3 -6 -6z"/>
<path d="M470 10090 c8 -5 26 -10 39 -10 32 0 24 6 -19 14 -25 4 -31 3 -20 -4z"/>
<path d="M3688 7703 c7 -3 16 -2 19 1 4 3 -2 6 -13 5 -11 0 -14 -3 -6 -6z"/>
<path d="M1060 8610 c0 -5 5 -10 11 -10 5 0 7 5 4 10 -3 6 -8 10 -11 10 -2 0
-4 -4 -4 -10z"/>
<path d="M1753 8463 c-17 -6 -16 -20 1 -26 10 -4 14 0 13 14 -1 10 -1 19 -2
18 0 0 -6 -3 -12 -6z"/>
<path d="M22 8228 c7 -19 38 -22 38 -4 0 10 -9 16 -21 16 -12 0 -19 -5 -17
-12z"/>
<path d="M150 8232 c0 -4 9 -8 20 -9 11 -1 20 2 20 8 0 5 -9 9 -20 9 -11 0
-20 -4 -20 -8z"/>
<path d="M747 7959 c4 -13 8 -18 11 -10 2 7 -1 18 -6 23 -8 8 -9 4 -5 -13z"/>
<path d="M2113 7013 c-18 -7 -16 -50 3 -57 9 -3 21 -3 27 1 6 4 1 10 -12 15
-28 10 -22 34 7 30 12 -2 22 2 22 7 0 11 -25 13 -47 4z"/>
<path d="M2178 6990 c-3 -20 0 -30 9 -30 7 0 12 5 11 11 -2 6 3 14 10 16 7 3
12 -4 12 -16 0 -11 5 -23 10 -26 6 -4 10 6 10 24 0 20 -7 34 -19 41 -31 16
-38 12 -43 -20z"/>
<path d="M0 6827 c0 -76 13 -100 39 -74 16 16 13 47 -5 47 -12 0 -15 10 -13
47 2 30 -1 48 -9 51 -9 3 -12 -17 -12 -71z"/>
<path d="M2358 6883 c7 -3 16 -2 19 1 4 3 -2 6 -13 5 -11 0 -14 -3 -6 -6z"/>
<path d="M2640 6840 c0 -8 24 -20 41 -20 6 0 8 4 5 9 -8 12 -46 21 -46 11z"/>
<path d="M2640 6801 c0 -18 6 -21 39 -21 37 0 40 -2 43 -32 3 -29 4 -27 8 13
l5 46 -35 -1 c-19 -1 -41 2 -47 7 -9 7 -13 3 -13 -12z"/>
<path d="M2675 6709 c-11 -17 1 -21 15 -4 8 9 8 15 2 15 -6 0 -14 -5 -17 -11z"/>
<path d="M2686 6683 c-12 -12 -6 -31 13 -36 14 -3 17 0 14 14 -6 22 -17 31
-27 22z"/>
<path d="M2651 6664 c0 -11 3 -14 6 -6 3 7 2 16 -1 19 -3 4 -6 -2 -5 -13z"/>
<path d="M725 6518 c-8 -49 7 -92 34 -96 21 -3 22 -1 16 45 -4 26 -9 56 -12
66 -8 29 -32 19 -38 -15z"/>
<path d="M2023 6458 c-1 -35 -6 -75 -12 -90 -7 -20 -7 -28 3 -31 16 -6 31 4
32 21 1 6 2 21 3 32 1 23 29 27 37 5 10 -26 24 -16 24 16 0 27 -2 30 -15 19
-24 -20 -42 -6 -37 29 4 27 8 31 33 31 17 0 32 -6 35 -15 9 -21 24 -19 24 4 0
21 -11 26 -80 35 l-45 6 -2 -62z"/>
<path d="M2960 6491 c0 -26 24 -33 55 -17 l26 14 -32 11 c-43 15 -49 14 -49
-8z"/>
<path d="M2273 6421 c-3 -72 -18 -115 -35 -105 -9 5 -10 4 -3 -4 6 -7 26 -15
45 -18 30 -6 33 -5 23 8 -9 11 -10 30 -3 74 14 86 13 104 -7 104 -15 0 -18
-11 -20 -59z"/>
<path d="M2352 6433 c0 -21 -8 -62 -15 -90 -16 -61 -20 -57 78 -68 33 -3 73
-8 89 -11 25 -4 27 -3 16 10 -16 20 -5 82 16 90 25 10 32 -2 24 -39 -4 -19 -6
-35 -3 -35 3 0 0 -6 -6 -13 -14 -17 -4 -27 25 -27 17 0 23 -7 26 -27 2 -19 10
-29 29 -34 38 -10 78 0 90 23 13 24 2 38 -44 55 l-32 11 32 1 c34 1 60 31 47
53 -4 6 -3 8 2 5 14 -8 38 9 31 21 -4 5 -29 10 -56 10 -58 2 -85 -18 -78 -55
2 -13 1 -26 -4 -29 -4 -2 -5 -12 -2 -21 4 -11 2 -14 -8 -11 -10 3 -14 21 -14
59 0 65 -10 82 -41 76 -14 -2 -27 0 -30 4 -3 5 -14 9 -26 9 -14 0 -18 -5 -14
-15 3 -9 3 -36 -1 -60 -5 -36 -10 -45 -26 -45 -18 0 -19 4 -12 56 5 43 3 59
-7 65 -21 14 -24 11 -25 -32 -3 -54 -11 -79 -28 -79 -21 0 -24 11 -14 65 21
121 21 115 2 115 -15 0 -19 -8 -21 -37z m336 -122 c-16 -26 -32 -22 -36 9 -5
28 18 44 36 26 12 -11 12 -17 0 -35z m-19 -72 c38 -13 40 -25 5 -33 -30 -8
-55 9 -47 30 6 17 3 17 42 3z"/>
<path d="M2180 6444 c0 -2 6 -13 12 -24 15 -23 4 -38 -32 -43 -51 -8 -48 -68
4 -65 11 0 27 -1 35 -3 11 -3 17 10 23 51 5 30 6 60 4 66 -4 11 -46 27 -46 18z
m10 -88 c0 -18 -16 -29 -30 -21 -13 8 -1 35 16 35 8 0 14 -6 14 -14z"/>
<path d="M2424 6439 c-7 -12 15 -31 28 -23 4 3 8 12 8 20 0 17 -26 19 -36 3z"/>
<path d="M2141 6426 c-9 -11 -8 -15 5 -20 23 -9 24 -8 24 14 0 23 -13 26 -29
6z"/>
<path d="M2982 6428 c2 -6 26 -17 52 -23 27 -7 52 -18 56 -25 5 -9 9 -8 13 3
4 11 -4 17 -28 21 -18 4 -36 13 -39 21 -6 18 -60 21 -54 3z"/>
<path d="M68 6393 c7 -3 16 -2 19 1 4 3 -2 6 -13 5 -11 0 -14 -3 -6 -6z"/>
<path d="M120 6390 c8 -5 22 -9 30 -9 10 0 8 3 -5 9 -27 12 -43 12 -25 0z"/>
<path d="M2978 6393 c7 -3 16 -2 19 1 4 3 -2 6 -13 5 -11 0 -14 -3 -6 -6z"/>
<path d="M2750 6386 c0 -2 7 -9 15 -16 9 -7 15 -8 15 -2 0 5 -7 12 -15 16 -8
3 -15 4 -15 2z"/>
<path d="M3111 6364 c0 -11 3 -14 6 -6 3 7 2 16 -1 19 -3 4 -6 -2 -5 -13z"/>
<path d="M17 6353 c-18 -5 -18 -5 0 -19 20 -15 143 -20 143 -6 0 24 -89 39
-143 25z"/>
<path d="M2810 6340 c0 -5 7 -10 15 -10 8 0 15 5 15 10 0 6 -7 10 -15 10 -8 0
-15 -4 -15 -10z"/>
<path d="M1537 6334 c-15 -15 -7 -45 11 -42 9 2 17 12 17 22 0 20 -16 31 -28
20z"/>
<path d="M3280 6334 c0 -10 31 -36 37 -31 3 3 -2 13 -10 22 -16 15 -27 19 -27
9z"/>
<path d="M3031 6314 c0 -11 3 -14 6 -6 3 7 2 16 -1 19 -3 4 -6 -2 -5 -13z"/>
<path d="M2793 6275 c-6 -25 -7 -47 -4 -50 12 -7 26 9 29 35 7 49 7 53 -4 57
-6 2 -15 -17 -21 -42z"/>
<path d="M3056 6305 c-3 -9 -6 -22 -5 -28 0 -7 5 -1 10 12 5 13 8 26 5 28 -2
2 -6 -3 -10 -12z"/>
<path d="M0 6300 c0 -5 5 -10 11 -10 5 0 7 5 4 10 -3 6 -8 10 -11 10 -2 0 -4
-4 -4 -10z"/>
<path d="M3504 6296 c-3 -8 -2 -22 3 -31 8 -13 10 -10 10 14 0 34 -5 39 -13
17z"/>
<path d="M3465 6290 c-3 -5 -1 -10 4 -10 6 0 11 5 11 10 0 6 -2 10 -4 10 -3 0
-8 -4 -11 -10z"/>
<path d="M3066 6265 c-4 -16 -10 -24 -14 -18 -5 7 -11 7 -19 -2 -10 -10 -9
-14 2 -19 17 -6 49 36 43 56 -3 7 -8 0 -12 -17z"/>
<path d="M410 6226 c0 -9 7 -16 16 -16 17 0 14 22 -4 28 -7 2 -12 -3 -12 -12z"/>
<path d="M3642 6220 c0 -14 2 -19 5 -12 2 6 2 18 0 25 -3 6 -5 1 -5 -13z"/>
<path d="M3604 6215 c-7 -17 4 -37 17 -30 12 8 12 45 -1 45 -6 0 -13 -7 -16
-15z"/>
<path d="M500 6210 c0 -5 5 -10 11 -10 5 0 7 5 4 10 -3 6 -8 10 -11 10 -2 0
-4 -4 -4 -10z"/>
<path d="M0 6161 c0 -30 4 -41 16 -41 11 0 14 9 12 37 -4 52 -28 56 -28 4z"/>
<path d="M3025 6161 c-6 -11 9 -23 19 -14 9 9 7 23 -3 23 -6 0 -12 -4 -16 -9z"/>
<path d="M3506 6075 c4 -8 8 -15 10 -15 2 0 4 7 4 15 0 8 -4 15 -10 15 -5 0
-7 -7 -4 -15z"/>
<path d="M405 6050 c-7 -12 2 -30 16 -30 5 0 9 9 9 20 0 21 -15 27 -25 10z"/>
<path d="M1650 6020 c0 -5 5 -10 10 -10 6 0 10 5 10 10 0 6 -4 10 -10 10 -5 0
-10 -4 -10 -10z"/>
<path d="M2650 6010 c0 -5 5 -10 10 -10 6 0 10 5 10 10 0 6 -4 10 -10 10 -5 0
-10 -4 -10 -10z"/>
<path d="M1434 5993 c-4 -10 -8 -31 -9 -48 -1 -16 -5 -48 -10 -70 -4 -22 -5
-37 -1 -34 8 7 38 161 32 166 -2 2 -7 -4 -12 -14z"/>
<path d="M2805 5980 c27 -12 35 -12 35 0 0 6 -12 10 -27 9 -25 0 -26 -1 -8 -9z"/>
<path d="M2850 5970 c0 -5 7 -10 16 -10 8 0 12 5 9 10 -3 6 -10 10 -16 10 -5
0 -9 -4 -9 -10z"/>
<path d="M400 5850 c0 -5 7 -10 16 -10 8 0 12 5 9 10 -3 6 -10 10 -16 10 -5 0
-9 -4 -9 -10z"/>
<path d="M1397 5800 c-4 -14 -6 -38 -6 -55 l1 -30 9 34 c6 18 9 43 7 55 -3 20
-4 19 -11 -4z"/>
<path d="M320 5720 c0 -22 5 -40 10 -40 6 0 10 18 10 40 0 22 -4 40 -10 40 -5
0 -10 -18 -10 -40z"/>
<path d="M1166 5752 c-7 -12 4 -52 14 -52 11 0 24 40 16 47 -3 4 -6 -1 -6 -11
0 -10 -5 -14 -11 -11 -6 4 -8 13 -5 21 6 15 0 19 -8 6z"/>
<path d="M481 5734 c0 -11 3 -14 6 -6 3 7 2 16 -1 19 -3 4 -6 -2 -5 -13z"/>
<path d="M1114 5716 c-25 -19 -8 -37 23 -25 15 5 21 14 17 24 -8 19 -15 19
-40 1z"/>
<path d="M850 5710 c0 -5 5 -10 11 -10 5 0 7 5 4 10 -3 6 -8 10 -11 10 -2 0
-4 -4 -4 -10z"/>
<path d="M1376 5683 c-2 -10 -7 -38 -10 -63 -5 -39 -5 -42 5 -20 11 23 21 100
14 100 -2 0 -6 -8 -9 -17z"/>
<path d="M471 5681 c-8 -6 -9 -11 -3 -15 6 -3 14 -1 17 5 9 14 2 20 -14 10z"/>
<path d="M941 5664 c0 -11 3 -14 6 -6 3 7 2 16 -1 19 -3 4 -6 -2 -5 -13z"/>
<path d="M1120 5642 c0 -7 -7 -20 -15 -28 -8 -9 -15 -22 -15 -30 0 -8 7 -14
15 -14 9 0 15 -9 15 -25 0 -14 -4 -25 -10 -25 -5 0 -10 -18 -10 -40 0 -73 18
-41 25 45 4 47 11 82 16 79 14 -8 11 10 -6 32 -9 12 -14 14 -15 6z"/>
<path d="M367 5613 c-4 -3 -7 -19 -7 -35 0 -31 20 -38 40 -13 22 26 -9 72 -33
48z"/>
<path d="M1351 5504 c0 -11 3 -14 6 -6 3 7 2 16 -1 19 -3 4 -6 -2 -5 -13z"/>
<path d="M2870 5496 c0 -22 3 -27 11 -19 8 8 8 16 0 30 -9 16 -10 14 -11 -11z"/>
<path d="M941 5494 c0 -11 3 -14 6 -6 3 7 2 16 -1 19 -3 4 -6 -2 -5 -13z"/>
<path d="M1341 5454 c0 -11 3 -14 6 -6 3 7 2 16 -1 19 -3 4 -6 -2 -5 -13z"/>
<path d="M2932 5458 c3 -7 15 -15 28 -16 21 -3 22 -2 11 12 -16 19 -44 21 -39
4z"/>
<path d="M925 5450 c-3 -5 -1 -10 4 -10 6 0 11 5 11 10 0 6 -2 10 -4 10 -3 0
-8 -4 -11 -10z"/>
<path d="M2880 5430 c0 -5 5 -10 10 -10 6 0 10 5 10 10 0 6 -4 10 -10 10 -5 0
-10 -4 -10 -10z"/>
<path d="M2796 5413 c-3 -4 -6 -21 -6 -38 l0 -32 67 -1 c37 0 75 4 85 9 14 8
18 6 18 -7 0 -10 -5 -14 -15 -10 -8 3 -15 1 -15 -5 0 -6 8 -9 18 -8 9 2 29 0
45 -4 24 -7 26 -11 20 -35 -6 -24 -5 -26 10 -13 18 14 23 51 8 51 -5 0 -24 14
-42 31 -28 26 -36 29 -54 19 -18 -10 -31 -7 -77 19 -31 16 -59 27 -62 24z m39
-33 c3 -5 -1 -10 -9 -10 -8 0 -18 5 -21 10 -3 6 1 10 9 10 8 0 18 -4 21 -10z"/>
<path d="M2940 5410 c0 -5 5 -10 10 -10 6 0 10 5 10 10 0 6 -4 10 -10 10 -5 0
-10 -4 -10 -10z"/>
<path d="M2597 5402 c-10 -14 4 -52 19 -52 23 0 26 19 6 41 -11 11 -22 16 -25
11z"/>
<path d="M2675 5400 c-8 -13 5 -13 25 0 13 8 13 10 -2 10 -9 0 -20 -4 -23 -10z"/>
<path d="M1367 5383 c-13 -12 -7 -38 12 -50 16 -10 22 -8 36 7 10 11 15 26 12
35 -6 15 -48 21 -60 8z m29 -40 c-10 -10 -19 5 -10 18 6 11 8 11 12 0 2 -7 1
-15 -2 -18z"/>
<path d="M835 5370 c-3 -5 -1 -10 4 -10 6 0 11 5 11 10 0 6 -2 10 -4 10 -3 0
-8 -4 -11 -10z"/>
<path d="M1010 5370 c-13 -8 -12 -10 4 -10 15 0 16 -3 6 -15 -10 -12 -9 -18 5
-31 15 -15 16 -15 9 10 -4 16 -2 26 5 26 6 0 8 7 5 15 -7 17 -13 18 -34 5z"/>
<path d="M3230 5346 c0 -15 24 -28 34 -19 5 6 -18 33 -28 33 -3 0 -6 -6 -6
-14z"/>
<path d="M967 5344 c-8 -8 1 -24 14 -24 5 0 9 7 9 15 0 15 -12 20 -23 9z"/>
<path d="M629 5311 c11 -7 11 -9 0 -13 -8 -3 0 -5 16 -5 17 0 24 2 17 4 -6 3
-10 9 -6 14 3 5 -5 9 -18 9 -17 0 -19 -3 -9 -9z"/>
<path d="M718 5313 c7 -3 16 -2 19 1 4 3 -2 6 -13 5 -11 0 -14 -3 -6 -6z"/>
<path d="M1090 5300 c0 -11 7 -20 15 -20 8 0 15 9 15 20 0 11 -7 20 -15 20 -8
0 -15 -9 -15 -20z"/>
<path d="M3280 5304 c0 -8 5 -12 10 -9 6 4 8 11 5 16 -9 14 -15 11 -15 -7z"/>
<path d="M967 5293 c3 -7 9 -13 13 -13 4 0 10 6 13 13 3 7 -3 13 -13 13 -10 0
-16 -6 -13 -13z"/>
<path d="M748 5293 c7 -3 16 -2 19 1 4 3 -2 6 -13 5 -11 0 -14 -3 -6 -6z"/>
<path d="M835 5290 c-3 -5 1 -10 10 -10 9 0 13 5 10 10 -3 6 -8 10 -10 10 -2
0 -7 -4 -10 -10z"/>
<path d="M578 5283 c6 -2 18 -2 25 0 6 3 1 5 -13 5 -14 0 -19 -2 -12 -5z"/>
<path d="M750 5273 l-35 -14 35 6 c19 3 39 10 44 15 13 13 0 11 -44 -7z"/>
<path d="M2067 5283 c-4 -3 -7 -13 -7 -22 1 -13 3 -13 11 2 11 19 8 33 -4 20z"/>
<path d="M3100 5280 c0 -5 7 -10 16 -10 8 0 12 5 9 10 -3 6 -10 10 -16 10 -5
0 -9 -4 -9 -10z"/>
<path d="M628 5273 c6 -2 18 -2 25 0 6 3 1 5 -13 5 -14 0 -19 -2 -12 -5z"/>
<path d="M688 5273 c7 -3 16 -2 19 1 4 3 -2 6 -13 5 -11 0 -14 -3 -6 -6z"/>
<path d="M3041 5238 c-1 -27 3 -38 14 -38 8 0 12 -6 9 -15 -4 -10 3 -16 23
-20 24 -5 48 -15 86 -33 4 -2 7 1 7 7 0 6 -6 11 -13 11 -7 0 -21 20 -32 45
-11 25 -24 45 -29 45 -5 0 -18 8 -28 17 -17 15 -18 15 -13 0 4 -9 3 -22 -1
-29 -6 -9 -11 -4 -15 17 -6 29 -7 29 -8 -7z"/>
<path d="M2980 5235 c-10 -13 -9 -15 9 -15 12 0 21 6 21 15 0 8 -4 15 -9 15
-5 0 -14 -7 -21 -15z"/>
<path d="M868 5221 c-19 -19 -24 -51 -8 -51 6 0 10 8 10 18 0 11 3 13 8 6 5
-9 10 -8 19 1 9 10 9 16 0 28 -11 13 -14 13 -29 -2z"/>
<path d="M3334 5223 c-3 -10 -10 -26 -15 -36 -6 -11 -8 -21 -5 -24 3 -3 1 -14
-5 -24 -8 -16 -6 -19 14 -19 25 0 47 17 47 36 0 7 -8 10 -20 7 -19 -5 -27 7
-13 20 6 7 12 57 6 57 -2 0 -6 -8 -9 -17z"/>
<path d="M780 5219 c0 -5 5 -7 10 -4 6 3 10 8 10 11 0 2 -4 4 -10 4 -5 0 -10
-5 -10 -11z"/>
<path d="M3300 5210 c0 -5 5 -10 11 -10 5 0 7 5 4 10 -3 6 -8 10 -11 10 -2 0
-4 -4 -4 -10z"/>
<path d="M810 5189 c0 -5 -6 -7 -12 -3 -10 5 -10 4 0 -7 10 -11 15 -10 29 4
16 16 16 17 0 17 -9 0 -17 -5 -17 -11z"/>
<path d="M3185 5191 c-3 -6 3 -24 14 -42 15 -24 17 -38 10 -56 -11 -29 10 -41
49 -27 35 12 39 32 8 44 -28 10 -35 30 -12 30 8 0 18 5 22 12 5 8 -2 9 -24 5
-34 -7 -52 7 -24 18 16 7 15 8 -3 15 -27 12 -33 12 -40 1z"/>
<path d="M2781 5164 c0 -11 3 -14 6 -6 3 7 2 16 -1 19 -3 4 -6 -2 -5 -13z"/>
<path d="M1770 5159 c0 -5 5 -7 10 -4 6 3 10 8 10 11 0 2 -4 4 -10 4 -5 0 -10
-5 -10 -11z"/>
<path d="M2950 5150 c0 -11 2 -20 4 -20 2 0 6 9 9 20 3 11 1 20 -4 20 -5 0 -9
-9 -9 -20z"/>
<path d="M2986 5161 c-3 -5 -9 -30 -12 -55 -6 -39 -4 -46 9 -41 30 12 177 -38
177 -60 0 -5 16 -10 35 -11 19 0 35 3 35 8 0 13 48 9 52 -4 5 -15 28 -1 28 18
0 19 -41 34 -93 34 -33 0 -50 7 -75 30 -18 17 -39 30 -45 30 -8 0 -7 -3 2 -9
9 -6 0 -10 -28 -13 -46 -4 -56 9 -46 59 3 15 2 22 -1 15 -4 -9 -9 -10 -19 -2
-8 7 -15 7 -19 1z"/>
<path d="M3060 5136 c0 -9 30 -14 35 -6 4 6 -3 10 -14 10 -12 0 -21 -2 -21 -4z"/>
<path d="M1272 5100 c0 -14 2 -19 5 -12 2 6 2 18 0 25 -3 6 -5 1 -5 -13z"/>
<path d="M3038 5108 c5 -5 16 -8 23 -6 8 3 3 7 -10 11 -17 4 -21 3 -13 -5z"/>
<path d="M2992 5000 c0 -14 2 -19 5 -12 2 6 2 18 0 25 -3 6 -5 1 -5 -13z"/>
<path d="M3113 4995 c-3 -9 -3 -18 -1 -21 3 -3 8 4 11 16 6 23 -1 27 -10 5z"/>
<path d="M3272 4890 c0 -14 2 -19 5 -12 2 6 2 18 0 25 -3 6 -5 1 -5 -13z"/>
<path d="M1150 4865 c0 -8 5 -15 10 -15 6 0 10 7 10 15 0 8 -4 15 -10 15 -5 0
-10 -7 -10 -15z"/>
<path d="M1221 4844 c0 -11 3 -14 6 -6 3 7 2 16 -1 19 -3 4 -6 -2 -5 -13z"/>
<path d="M3092 4840 c0 -14 2 -19 5 -12 2 6 2 18 0 25 -3 6 -5 1 -5 -13z"/>
<path d="M3115 4832 c-4 -10 0 -12 11 -8 8 3 18 6 20 6 2 0 4 4 4 8 0 15 -29
9 -35 -6z"/>
<path d="M1171 4784 c0 -11 3 -14 6 -6 3 7 2 16 -1 19 -3 4 -6 -2 -5 -13z"/>
<path d="M3128 4788 c-4 -10 -16 -18 -26 -18 -10 0 -26 -13 -35 -30 -10 -16
-25 -30 -33 -30 -18 0 -54 36 -54 55 0 8 -4 15 -9 15 -21 0 12 -66 38 -78 15
-7 37 -21 48 -31 25 -23 37 -17 22 12 -10 18 -9 19 15 13 26 -6 31 0 28 44 0
8 4 18 10 21 5 4 8 15 6 25 -3 18 -4 18 -10 2z"/>
<path d="M3157 4771 c-3 -13 2 -21 14 -24 22 -6 25 9 5 28 -12 12 -15 12 -19
-4z"/>
<path d="M3224 4729 c-9 -16 10 -31 30 -23 13 5 14 9 5 20 -14 17 -25 18 -35
3z"/>
<path d="M3145 4720 c-7 -12 2 -30 16 -30 5 0 9 9 9 20 0 21 -15 27 -25 10z"/>
<path d="M1191 4684 c0 -11 3 -14 6 -6 3 7 2 16 -1 19 -3 4 -6 -2 -5 -13z"/>
<path d="M1147 4677 c-11 -29 -9 -43 4 -30 6 6 9 19 7 29 -3 18 -4 18 -11 1z"/>
<path d="M1182 4620 c0 -14 2 -19 5 -12 2 6 2 18 0 25 -3 6 -5 1 -5 -13z"/>
<path d="M3017 4564 c-7 -8 3 -34 13 -34 5 0 8 9 7 20 -1 20 -8 25 -20 14z"/>
<path d="M3060 4450 c0 -12 -4 -18 -10 -15 -5 3 -10 1 -10 -4 0 -6 4 -11 9
-11 4 0 9 -30 9 -66 1 -37 4 -69 7 -72 12 -13 20 13 19 64 -1 29 2 51 7 48 14
-8 10 6 -6 22 -8 8 -12 21 -9 28 3 8 1 17 -5 21 -7 3 -11 -3 -11 -15z"/>
<path d="M1684 4395 c-3 -8 -4 -20 -2 -27 3 -7 7 -1 10 15 6 29 1 36 -8 12z"/>
<path d="M1651 4384 c0 -11 3 -14 6 -6 3 7 2 16 -1 19 -3 4 -6 -2 -5 -13z"/>
<path d="M1760 4386 c0 -8 -6 -17 -12 -19 -8 -3 -6 -6 5 -6 11 -1 17 6 17 19
0 11 -2 20 -5 20 -3 0 -5 -6 -5 -14z"/>
<path d="M1221 4279 c-56 -11 -63 -18 -48 -49 11 -23 18 -25 65 -22 83 5 132
32 132 73 0 11 -89 10 -149 -2z"/>
<path d="M1602 4250 c0 -14 2 -19 5 -12 2 6 2 18 0 25 -3 6 -5 1 -5 -13z"/>
<path d="M1623 4235 c-3 -9 -3 -19 1 -22 3 -4 6 1 6 10 0 8 6 18 13 20 9 4 9
6 -1 6 -7 1 -15 -6 -19 -14z"/>
<path d="M1670 4235 c0 -8 2 -15 4 -15 2 0 6 7 10 15 3 8 1 15 -4 15 -6 0 -10
-7 -10 -15z"/>
<path d="M1760 4226 c0 -8 -8 -17 -17 -19 -14 -4 -12 -5 5 -6 16 -1 22 5 22
19 0 11 -2 20 -5 20 -3 0 -5 -6 -5 -14z"/>
<path d="M1567 4103 c-10 -9 -9 -43 1 -43 4 0 9 11 10 25 2 26 0 29 -11 18z"/>
<path d="M1591 4073 c2 -24 2 -25 6 -5 2 12 8 20 13 17 5 -3 7 -12 3 -20 -3
-8 0 -15 6 -15 6 0 11 11 11 25 0 18 -5 25 -20 25 -15 0 -20 -6 -19 -27z"/>
<path d="M1700 4075 c0 -8 -4 -15 -10 -15 -5 0 -10 -4 -10 -10 0 -5 7 -10 15
-10 9 0 15 9 15 25 0 14 -2 25 -5 25 -3 0 -5 -7 -5 -15z"/>
<path d="M1730 4063 c0 -10 4 -14 8 -8 4 6 11 13 16 18 5 4 2 7 -7 7 -10 0
-17 -8 -17 -17z"/>
<path d="M1304 4059 c-3 -6 -1 -16 5 -22 8 -8 11 -5 11 11 0 24 -5 28 -16 11z"/>
<path d="M1528 3927 c-3 -15 -2 -27 1 -28 3 0 16 -2 27 -5 17 -3 23 2 27 24 6
34 -1 42 -17 20 -11 -15 -13 -15 -22 0 -9 14 -12 13 -16 -11z"/>
<path d="M1596 3922 c-4 -13 -5 -26 -2 -29 10 -11 18 4 14 29 l-4 23 -8 -23z"/>
<path d="M1620 3916 c0 -14 2 -26 4 -26 2 0 11 -3 19 -6 9 -3 17 3 21 18 l7
23 9 -22 c11 -28 20 -29 20 -3 0 10 -9 24 -20 30 -17 9 -22 7 -30 -12 -6 -16
-9 -18 -9 -6 -1 28 -21 31 -21 4z"/>
<path d="M1493 3784 c-11 -28 2 -48 35 -51 30 -4 32 -2 32 25 0 26 -4 30 -31
34 -19 3 -33 0 -36 -8z"/>
<path d="M1572 3755 c3 -14 1 -28 -3 -31 -5 -3 -9 -11 -9 -17 0 -7 9 -1 19 12
10 13 16 32 14 42 -8 29 -26 23 -21 -6z"/>
<path d="M1694 3772 c-6 -4 -14 -14 -17 -22 -4 -12 -6 -11 -6 3 -1 9 -7 17
-13 17 -23 0 -41 -18 -35 -34 9 -23 26 -20 20 4 -3 11 0 20 6 20 5 0 8 -6 5
-14 -3 -8 3 -19 15 -26 18 -9 21 -8 21 9 0 11 5 23 10 26 7 4 9 -2 4 -19 -4
-16 -2 -26 5 -26 6 0 11 10 12 23 1 21 1 21 9 -3 7 -21 8 -22 9 -5 2 18 3 18
16 -5 17 -30 20 -18 3 13 -11 21 -37 46 -48 47 -3 0 -10 -4 -16 -8z"/>
<path d="M1807 3742 c-20 -4 -19 -33 1 -40 7 -2 10 2 6 11 -3 10 1 17 13 19
10 2 14 6 8 9 -5 3 -18 4 -28 1z"/>
<path d="M1040 3695 c0 -8 9 -15 20 -15 13 0 18 5 14 15 -4 8 -12 15 -20 15
-8 0 -14 -7 -14 -15z"/>
<path d="M1590 3620 c0 -5 7 -10 15 -10 8 0 15 5 15 10 0 6 -7 10 -15 10 -8 0
-15 -4 -15 -10z"/>
<path d="M1639 3625 c-1 -3 -2 -9 -3 -14 0 -5 -4 -13 -8 -17 -11 -10 -10 -44
1 -44 5 0 12 10 16 23 l8 22 4 -22 c5 -23 43 -29 43 -6 0 6 5 15 12 19 8 5 9
0 6 -14 -4 -12 -2 -22 3 -22 5 0 9 5 9 10 0 6 4 10 10 10 5 0 7 -8 4 -17 -5
-15 -3 -15 10 1 14 17 16 18 16 3 0 -25 13 -21 27 8 6 14 7 23 3 20 -5 -3 -12
0 -16 6 -4 8 -9 7 -15 -2 -6 -10 -9 -10 -9 -2 0 9 -13 11 -40 9 -33 -3 -39 -2
-30 9 8 9 8 15 0 20 -5 3 -13 -1 -16 -9 -3 -9 -10 -16 -15 -16 -4 0 -6 7 -3
15 4 8 1 15 -5 15 -6 0 -12 -2 -12 -5z"/>
<path d="M1012 3603 c1 -10 -2 -28 -6 -40 -6 -18 -4 -23 11 -23 16 0 18 6 15
35 -4 36 -22 60 -20 28z"/>
<path d="M1840 3585 c5 -21 0 -36 -10 -30 -5 3 -10 2 -10 -3 0 -6 7 -12 14
-15 19 -8 32 31 16 47 -6 6 -11 7 -10 1z"/>
<path d="M1870 3559 c0 -22 0 -22 15 -3 14 19 14 19 15 -3 0 -12 5 -25 11 -28
6 -4 9 0 7 11 -2 11 2 18 10 17 6 -2 12 2 12 7 0 6 -6 10 -12 10 -7 0 -23 3
-35 6 -19 5 -23 2 -23 -17z"/>
<path d="M1183 3548 c2 -7 10 -13 17 -13 7 0 15 6 18 13 2 7 -5 12 -18 12 -13
0 -20 -5 -17 -12z"/>
<path d="M1555 3470 c-3 -5 -1 -10 4 -10 6 0 11 5 11 10 0 6 -2 10 -4 10 -3 0
-8 -4 -11 -10z"/>
<path d="M1599 3453 c-13 -16 -12 -17 4 -4 16 13 21 21 13 21 -2 0 -10 -8 -17
-17z"/>
<path d="M1840 3440 c0 -6 7 -10 15 -10 8 0 15 2 15 4 0 2 -7 6 -15 10 -8 3
-15 1 -15 -4z"/>
<path d="M1946 3415 c-3 -8 -1 -15 4 -15 6 0 10 7 10 15 0 8 -2 15 -4 15 -2 0
-6 -7 -10 -15z"/>
<path d="M1900 3401 c0 -6 4 -13 10 -16 6 -3 7 1 4 9 -7 18 -14 21 -14 7z"/>
<path d="M1306 3335 c4 -8 10 -15 15 -15 4 0 6 7 3 15 -4 8 -10 15 -15 15 -4
0 -6 -7 -3 -15z"/>
<path d="M1986 3247 c-7 -35 0 -67 14 -67 7 0 3 90 -4 98 -2 1 -6 -12 -10 -31z"/>
<path d="M1360 3260 c0 -5 5 -10 10 -10 6 0 10 5 10 10 0 6 -4 10 -10 10 -5 0
-10 -4 -10 -10z"/>
<path d="M1395 3220 c3 -5 11 -10 16 -10 6 0 7 5 4 10 -3 6 -11 10 -16 10 -6
0 -7 -4 -4 -10z"/>
<path d="M1455 3150 c-9 -15 4 -30 27 -30 17 0 19 -4 14 -25 -7 -27 3 -32 22
-13 9 9 12 8 12 -6 0 -13 5 -16 20 -11 10 3 28 1 40 -5 30 -16 26 8 -7 34 -40
31 -96 65 -110 66 -6 0 -15 -4 -18 -10z"/>
<path d="M1467 3030 c3 -11 7 -20 9 -20 2 0 4 9 4 20 0 11 -4 20 -9 20 -5 0
-7 -9 -4 -20z"/>
<path d="M1320 3030 c20 -13 40 -13 40 0 0 6 -12 10 -27 10 -22 0 -25 -2 -13
-10z"/>
<path d="M1441 3024 c0 -11 3 -14 6 -6 3 7 2 16 -1 19 -3 4 -6 -2 -5 -13z"/>
<path d="M1550 2965 c0 -13 4 -14 20 -5 11 6 20 13 20 15 0 3 -9 5 -20 5 -11
0 -20 -7 -20 -15z"/>
<path d="M1778 2883 c7 -3 16 -2 19 1 4 3 -2 6 -13 5 -11 0 -14 -3 -6 -6z"/>
<path d="M1588 2803 c6 -2 18 -2 25 0 6 3 1 5 -13 5 -14 0 -19 -2 -12 -5z"/>
</g>
</svg>
